<?xml version="1.0" encoding="UTF-8"?>
<svg xmlns="http://www.w3.org/2000/svg" xmlns:xlink="http://www.w3.org/1999/xlink" width="32pt" height="32pt" viewBox="0 0 32 32" version="1.1">
<g id="surface320448">
<path style=" stroke:none;fill-rule:nonzero;fill:rgb(0%,0%,0%);fill-opacity:1;" d="M 15.929688 2.714844 C 12.578125 2.726562 9.25 3.152344 7.515625 3.953125 C 7.515625 3.953125 3.789062 5.648438 3.789062 11.429688 C 3.789062 18.304688 3.785156 26.945312 9.964844 28.617188 C 12.332031 29.25 14.367188 29.386719 16.003906 29.292969 C 18.972656 29.125 20.441406 28.214844 20.441406 28.214844 L 20.339844 26.023438 C 20.339844 26.023438 18.414062 26.699219 16.03125 26.625 C 13.671875 26.539062 11.183594 26.363281 10.796875 23.414062 C 10.761719 23.140625 10.742188 22.863281 10.746094 22.585938 C 15.746094 23.828125 20.011719 23.128906 21.1875 22.984375 C 24.46875 22.585938 27.320312 20.53125 27.683594 18.652344 C 28.257812 15.691406 28.207031 11.429688 28.207031 11.429688 C 28.207031 5.648438 24.488281 3.953125 24.488281 3.953125 C 22.660156 3.097656 19.285156 2.699219 15.929688 2.714844 Z M 12.34375 7.121094 C 13.492188 7.152344 14.625 7.667969 15.324219 8.753906 L 16.003906 9.902344 L 16.675781 8.753906 C 18.082031 6.570312 21.226562 6.707031 22.726562 8.394531 C 24.105469 10.003906 23.796875 11.039062 23.796875 18.21875 L 23.796875 18.222656 L 21.082031 18.222656 L 21.082031 11.972656 C 21.082031 9.050781 17.351562 8.9375 17.351562 12.378906 L 17.351562 16 L 14.652344 16 L 14.652344 12.378906 C 14.652344 8.9375 10.925781 9.046875 10.925781 11.972656 L 10.925781 18.21875 L 8.203125 18.21875 C 8.203125 11.035156 7.902344 9.988281 9.277344 8.394531 C 10.03125 7.542969 11.195312 7.089844 12.34375 7.121094 Z M 12.34375 7.121094 "/>
</g>
</svg>
