<?xml version="1.0" encoding="UTF-8"?>
<svg xmlns="http://www.w3.org/2000/svg" xmlns:xlink="http://www.w3.org/1999/xlink" width="16pt" height="16pt" viewBox="0 0 16 16" version="1.1">
<g id="surface21534885">
<path style=" stroke:none;fill-rule:nonzero;fill:rgb(20%,20%,20%);fill-opacity:1;" d="M 11.5 1.5 L 9 4 L 11 4 L 11 7.5 C 11 8.335938 10.335938 9 9.5 9 L 6 9 L 6 10 L 9.5 10 C 10.875 10 12 8.875 12 7.5 L 12 4 L 14 4 Z M 6.5 6 C 5.125 6 4 7.125 4 8.5 L 4 12 L 2 12 L 4.5 14.5 L 7 12 L 5 12 L 5 8.5 C 5 7.664062 5.664062 7 6.5 7 L 10 7 L 10 6 Z M 6.5 6 "/>
</g>
</svg>
