<svg xmlns="http://www.w3.org/2000/svg" width="64" height="64" viewBox="0 0 128 128"><path fill="#444b54" d="M124.3,102.6L101.9,3.3c-0.3-1.5-1.7-2.5-3.3-2.3c-0.7,0.1-1.3,0.4-1.7,0.9c-0.8,0.8-2.6,2.6-4,4 c-2.9,2.9-6.7,4.8-10.8,5c-4.7,0.3-9.2-1.4-12.5-4.7l-4.3-4.3c-0.5-0.5-1.1-0.8-1.7-0.9c-1.6-0.2-3,0.9-3.3,2.3L38,102.6 c-0.6,2.7-0.8,5.6-0.3,8.2l-2.9,1.3l-3.3-2.7l-15.1-3.5c-3.2-0.7-6.5,0-9.1,2.1c-2.7,2.2-4.2,5.5-4,9c0.3,5.7,5.3,10.1,11.1,10.1 h75.7c0.8,0,1.5-0.2,2.2-0.5l3-1.5l3.4,2h5.8c6,0,11.7-2.4,15.6-6.9C124.1,115.2,125.7,108.8,124.3,102.6z"/><path fill="#fff" d="M34.1 118.8c.5 1 1.6 1.6 2.7 1.6.5 0 .9-.1 1.4-.3 1.5-.8 2.1-2.6 1.3-4-.9-1.7-1.5-3.5-1.8-5.3l-6.2-1.4C31.7 112.7 32.6 115.8 34.1 118.8zM90 127h8.5c.3-.9.5-1.9.5-3 0-3.9-2.5-7.2-6-8.5L92.9 99c0-1.7-1.4-3-3-3-1.7 0-3 1.4-3 3l.1 18.6c0 .1 0 .2 0 .4 0 1.7 1.3 3 3 3s3 1.3 3 3S91.7 127 90 127zM72 120.4c-1.7 0-3-1.3-3-3L68.9 99c0-1.7 1.3-3 3-3l0 0c1.7 0 3 1.3 3 3l.1 18.4C75 119.1 73.7 120.4 72 120.4L72 120.4zM71 31A3 3 0 1 0 71 37 3 3 0 1 0 71 31zM91 31A3 3 0 1 0 91 37 3 3 0 1 0 91 31z"/></svg>