<svg xmlns="http://www.w3.org/2000/svg" viewBox="0 0 582.7 796.9"><title>flamenco_xmas_no_comments</title><g id="Layer_2" data-name="Layer 2"><g id="Layer_1-2" data-name="Layer 1"><path d="M215.48,475.4c-.1,3.77.06,7.57-.37,11.31-.37,3.23-1.49,6-5.71,6.41-1.92.16-3.71,1.77-5.56,2.72-8.44,2.51-15.88.72-22-5.57-5.39-5.55-5.37-21,.12-26.56,1.44-1.45,1.34-3.15,2.2-4.65,3.37-5.88,8.23-10.09,13.76-13.71a21.13,21.13,0,0,0,6.27,4.4c6.93,3.27,11.33,8.68,10.39,17.05-2.26,1.35.24,2.91-.19,4.34l-2.4.58c.38.48.66,1.23,1.15,1.4C214.33,473.54,215.45,473.85,215.48,475.4Z" style="fill:#51b2c5;"/><path d="M518.27,739.76c-.51-2.51-2-4.24-1.41-7.59,1.35-8.24-2.32-16.84.81-25.24a3.53,3.53,0,0,0-.59-2.52c-1.23-2-.52-4-.32-6.14.84-8.8,1.89-17.59.87-26.51-.42-3.68-3.51-7.78-2.48-10.11,2.42-5.47.38-10.76,1.07-16.06,1.13-8.75-1.3-17.67-.19-26.7,1-7.81-.85-15.71-.29-23.74.48-7,2-14.53-1.81-21.32-1.44-2.54,2.75-2.8,1.9-5.32-1.5-4.47-.94-9.15-.93-13.8,0-6-1.33-11.8-2.62-17.65-1.6-7.25-7.64-11.81-10.49-18.33-1-2.24-5.67-1.12-7-4.38-4,2.12-7.23-1.52-11-1.4-6.69-2.23-12.64,1.65-19,2.39-2.09.24-.92,2.81-2,4.12-2-3.69-4.11-.76-6.05-.1-4.06,1.39-5.06,5.75-7.67,8.58a10,10,0,0,1-5.31,3.26c-.53.12-1.32,0-1.54.36-2.61,3.88-5.14,7.81-7.7,11.73,4.05,1.87,1,4.91,1.36,7.42.28,2.22.54,2.68-2.3,2.85-2.45.15-.73,3-.09,4.38,2.11,4.43.43,9.18,1.5,13.68,1.45,6.13-2.56,12.47-.23,18.24,1.71,4.26.94,7.54-.15,11.43-1.33,4.78,1.51,9.47.53,14.55s.28,10.42-2.34,15.25c-.24.45-.52,1.33-.33,1.49,3.33,2.93.9,6.79,1.76,10,.66,2.44,2,4.2-1.3,5.44a1.82,1.82,0,0,0-.49,1.38c4.49,3.45.54,6.69-.24,10-.73,3.1,3,5.26,1.59,8.57s-.51,6.2,1.5,9.09c.87,1.24,1.76,3.17-.94,4.3-1.81.76-1.12,2.33-.07,3.55.64,0,1,.28.81,1l.39,2.94,6.37,2c3.24-1.6,4,2.55,6.43,2.78a8.35,8.35,0,0,1,6.48,2c4.9,3.92,10.05,7.62,14.41,12.08,3,3,3.46,7.76,5.56,11.6,3.29,6,1.18,12.68-1.18,18.88-.24.63-.48,1.26-.71,1.89-3.92-1.65-5.79,3.7-9.49,2.78l-5.37,1.29c-4.26,1.28-8.18.35-11.89-1.87L443,740.94c-1.61,1.24-1.81,0-2-1.16l-.09-.07-3.3-1c-3.4.71-3.15-3.37-5.42-4.14-3.1-.41-6.36-.53-7.68-4.2-2.58-.09-5.32.49-7.41-1.73-4.08-1.4-8.21-2.7-11.69-5.39-1.84.3-3.53.22-4.41-1.82-3.33-.74-6.88-.71-9.78-2.89l-2.13-.45h-2.17c-.67.1-1-.2-1-.87h0c-2.12-.5-4.72-.16-5.45-3.1-6,.9-10.69-3.21-16.12-4.52-1.5-.07-3.09.2-4.28-1.08-4.1,2-8.47,0-11-1.91-5.16-3.93-12-2.69-16.77-6.76a3,3,0,0,0-3.08-.11c-2.14.86-4.56,3.06-5.61-1.27-.08-.33-1.25-.57-1.92-.57-8.54-.08-17.19-.83-25.5,1.46-4.45,1.22-8.2,4.56-12.11,7s-8.08,4-11.79,6.51c1.12,2.8,1.66,5.89,5.48,6.81.78.19,1.17,2,2.25.24,1.46-2.4,4.26-1.91,5.84-1.54,10.48,2.46,21.15,3.88,31.62,6.49,7.2,1.79,13.65,5.47,20.86,7a3,3,0,0,1,1.43.7c5.84,5.54,14.38,5.75,20.53,10.21,3.43,2.49,7.48,3.41,10.67,6,5.39-.85,10.26,1.33,15.35,2.42,6.57,1.41,12.47,4.61,19.44,5.45,4.59.56,9.93,3.22,14.67,5.51,2,1,3.65,3.87,5.89,3,2.74-1.06,4.25,0,6.33,1.21,4.19,2.4,9.21,2.51,13.73,4.31,1.86.74,5.93-1.08,8.38.51,4.12,2.69,8.9,1.14,13.32,3,3.88,1.66,9.11.19,13.74.1,4.59,2.21,2.12-2.07,3-3.27l.06-.2,1.36.05,1,1c0,4.15,2.46,3.9,5.1,2.71,2.36-1.06,4.55-2.51,6.82-3.79a1.13,1.13,0,0,0,.81.56c.79,1.6,1.66,2.28,2.76.22.3-1.13,1.28-1.62,2.08-2.33,4.33-3.8,9.42-7.38,9.83-13.6.21-3.28.62-6.19,2.77-8.43C519.65,744.76,518.75,742.17,518.27,739.76ZM436,626.36c-.09-.13-.27-.26-.26-.38s.2-.22.31-.33c.09.12.27.26.26.37S436.06,626.25,436,626.36ZM322.86,702c-.11-.11-.21-.23-.32-.35l.15-.29c.17.1.33.21.49.32ZM478,632c-1.07,2.11.18,6.58-4.54,6.42-3.26-.1-5-2.63-7.3-4.19-3.32-2.23-8.61-2.9-9.57-6.93-1.06-4.41-3.4-8.07-4.82-12.2-2-5.9-1-11.87-.43-17.75.45-5,4.49-6.54,9-7,0-2.44,1.67-3.27,2.49-1.13s3.08,2.64,3.94,4.47a3.14,3.14,0,0,0,.51.39c1.66.55,1.44,1.89,1.34,3.18,2.14.9,3.43.53,4.67-1.82,1.63-3.1,3.21-6.64,6.69-8.11,9.71-4.09,13.29-.53,15.37,9.07,1.09,5,1.07,10.72-4.52,14.27a6.58,6.58,0,0,0-2.69,3.9C486.81,621.63,481.05,626,478,632Z" style="fill:#183948;"/><path d="M424.46,730.29a.08.08,0,0,1,0,0h0Z" style="fill:#183948;"/><path d="M347.38,749.93c-1.7-.93-3.59-1.17-4.27-3.38-.24-.78-1-2-1.58-2-6.28-.42-11-5.17-17.18-6-4.64-.6-9.43-1.32-13.71-3.06-10-4.07-20.46-4.62-31-5.41-3.55-.26-5.9,2.58-9.19,2.12-.93-1-1.92-1.92-2.78-3-2.25-2.73-3.87-5.31-.21-8.43,2.37-2,1.7-6.1,4.59-8-.89-4.63-1.27-8.79.37-13.82,1.56-4.83,2.59-10.89.62-16.44,6-7.19,2.18-16.29,4.7-24.39,2.88-9.24,3.1-19.32,4.36-29,.86-6.71.14-13.51.63-20.19.78-10.76,2.82-21.35.44-32.25-1-4.69-3.9-7.79-6.17-11.53-2.6-4.28-4.56,2.09-6.85.13-9.07-2.81-13.69.27-16,10-.88,3.7-3.34,7-4.12,10.75-1,4.7-3.88,8.53-4.84,13.24-1.08,5.33-1.84,11.22-3.63,15.81-3.39,8.67-3.25,18-7.19,26.51a41.15,41.15,0,0,0-4,18c.13,5.4-3.25,9.62-4.17,14.75-1.11,6.14-2,12.45-3.09,18.54-1.79,9.65-2.6,19.55-5.42,29-2.06,6.92-3.07,14-4.61,21-1.13,5.16-2.79,10.2-1.37,15.48a2.34,2.34,0,0,1-.71,2.78c-3.84,3.31-.9,6.39.19,9.6.47,1.38,7.54,2.31.44,4.54-.16,0-.07,2.74.65,3.46,2,1.94,2.46,5.45,6,5.74,1.21.1,1.89.85,1.36,2.26-1,2.64-.82,2.38,1.69,3.67s5.82-.72,7.56,2.57c2.16,4.09,5.84,4.56,9.47,2.76,3.14-1.55,6.44-.66,9.51-1,5.09-.61,10.15-1.5,15.24-2.16,6.22-.79,10.46-6.64,17-6.47,3.86,1.38,9.77-.6,12.1-4.06l-.2-.18.22.15c1.87-.13,3.47-.66,4-2.75l1,.45c.25,1.5.79,2.34,2.29,1,5.77-3.59,11-8,17.72-10.12,3.86-1.22,8.07-.77,11.67-2.86.82-.48,2.06-.14,2.31-1.6.43-2.45.49-2.46,1.84-2.55,9.45-.61,17.46-5.52,26-8.76C356.45,750.55,351.17,752,347.38,749.93Z" style="fill:#183948;"/><path d="M291.48,390.75c-.13,6.19-3.5,4.71-6.24,3.53-3.07-1.32-2.83-4.25-1.9-6.74,2.65-7.1,10.9-11.08,18.77-10.64,4.81.26,9.34,3.3,14.38,1.26,1.47-.6,1.91,1.36,2.68,2.2,2.33,2.57,4.72.13,7,.1s1.66-2.83,1.37-3.92c-.82-3,1.78-4.32,2.48-6.49,3.21-9.95,6.38-19.92,9.31-30,1.16-4,3.77-5,7.18-4.16,7.17,1.82,9.58,8.22,12.11,14.05.95,2.17-1.84,4.86-3.23,6.08-4.86,4.24-4.62,10.77-5.39,15.48-1,6.38-3.09,12.13-4.91,18.13-.8,2.65-4.08,4.3-2.15,8.4,1.09,2.32-2.76,4.12-5.23,2.22-5.33-4.08-10-3.52-15.7-.33-3.13,1.76-7.87.09-10.81-2.19-3.12-2.41-5.75-1.79-8.74-.82C297.39,398.59,294.41,396.19,291.48,390.75Z" style="fill:#4daec1;"/><path d="M402.89,383.72c0,4-.07,9.8-3.21,14.86A28.52,28.52,0,0,1,384,411.17c-3.77,1.21-7.52-1.49-11.34-2.12-9.15-1.49-12.07-8.62-14.2-16.14-.61-2.12-4.05-3.9-1.51-6.57a5.57,5.57,0,0,1,7-.76c2.46,1.47,6.09,2.67,5.05,7-.16.65-.33,1.68,0,2a28.34,28.34,0,0,0,10.76,6.21c2.85,1,9.18-5.86,10.49-9.29,2.73-7.21.57-13.61-3.22-19.44-1.71-2.62-.65-4.77-.77-7.13-.06-1.38,1.31-2.16,2.15-1.4,3.1,2.82,9.08,1.33,10.27,6.84C399.63,374.47,403.45,377.49,402.89,383.72Z" style="fill:#49a5b8;"/><path d="M292.25,418.56c4.15-.42,6.29,1.45,7.24,5.11a22.28,22.28,0,0,0,1.84,5c1.47,2.67,1.92,7,6.06,6.45,4.86-.68,10.43-.69,12.85-6.67,1-2.54,3.93-4.22.21-7.5-1.63-1.43.56-6.26-4-7.44-1.8-.46-2.5-2.22-.18-3.43,3.74-1.94,7.84-2.14,11.17.25s5.82,8,4.56,10.65c-1.54,3.19-.34,5.95-1.32,8.7a25,25,0,0,1-14.95,15.45,15.51,15.51,0,0,1-9.29.32c-5.22-1.92-11.87-2.81-13.77-9.52-1.12-4-3.22-7.42-4.64-11.19C286.06,419.49,286.82,418.47,292.25,418.56Z" style="fill:#49a5b8;"/><path d="M214.38,471.14c.44-1.43-2.06-3,.2-4.34,2.44,1.17,3.62,2.79,2,5.44l-.23-.15c-.36-.83-1.1-.84-1.83-.86Z" style="fill:#49a5b8;"/><path d="M215.48,475.4c0-1.55-1.15-1.86-2.34-2.28-.49-.17-.77-.92-1.15-1.4l2.4-.58.1.09a1.55,1.55,0,0,0,1.83.86l.23.15C216.41,473.37,217.35,474.86,215.48,475.4Z" style="fill:#49a5b8;"/><path d="M495.3,596.43c-2.08-9.6-5.66-13.16-15.37-9.07-3.48,1.47-5.06,5-6.69,8.11-1.24,2.35-2.53,2.72-4.67,1.82.1-1.29.32-2.63-1.34-3.18a3.14,3.14,0,0,1-.51-.39c-.86-1.83-3.08-2.21-3.94-4.47s-2.49-1.31-2.49,1.13c-4.46.45-8.5,2-9,7-.54,5.88-1.59,11.85.43,17.75,1.42,4.13,3.76,7.79,4.82,12.2,1,4,6.25,4.7,9.57,6.93,2.31,1.56,4,4.09,7.3,4.19,4.72.16,3.47-4.31,4.54-6.42,3.05-6,8.81-10.39,10.09-17.42a6.58,6.58,0,0,1,2.69-3.9C496.37,607.15,496.39,601.47,495.3,596.43Z" style="fill:#e36066;"/><path d="M420.3,669.22c.16,2.78-6.17,5.57-9.51,4.36a11.25,11.25,0,0,1-3.16-1.79c-4-3.17-7.53-2.17-9,3s-5.05,8.58-7.32,13c-.74,1.45-1.26.47-2,.12s-1.85-1-2.45-.73c-7,3.11-11-1.14-15.91-5.31-3.1-2.64-7.33-3.84-9.46-8-.87-1.67-2.11-.3-3.23.9a60.11,60.11,0,0,0-11.12,16.06c-.45,1-.37,3.25-2.13,1.91-5.27-4-13.31-2.41-17.4-8.23s-12.52-6.56-15.42-13.82c-.88-2.21-2.23,0-3.18.86-5.77,5.3-11.51,10.62-17.31,15.88-1.39,1.27-3,3.37-4.95,1.81s-3.2-4.31-2.05-6.78,1.92-5.19,4-7.39c5.06-5.33,9.44-11.39,16.71-14,.95-.35.6-.94.8-1.55,1.5-4.76,2.32-4,6.54-1.3a54.63,54.63,0,0,1,12.28,10.42c3.78,4.48,9.39,5.61,13.71,9,1.68,1.3,3.34.27,3.76-1.47,1.93-8,9.93-10.13,14.56-15.51.92-1.07,2.73-.09,4.34.51,7.45,2.77,12,9.17,17.76,13.92,3.55,2.92,5.25,1.59,6.39-1.24,3.17-7.92,9.34-13.19,15.43-18.54,3.6-3.16,8.32-2.44,11,2.11,2.1,3.54,4.06,7,7.18,9.75A6.11,6.11,0,0,1,420.3,669.22Z" style="fill:#56abbd;"/><path d="M452.08,706.76c1.45,3.6,3.69,6.25,7.67,7.35,3.7,1,3.51,5,4.47,7.62,2.77,7.59,1.52,9.23-7.39,12.32l-3,.15c-.89-1-1.68-2.22-3.34-1.79l-2.14-.14c-1-1.11-2.15-.93-3.36-.49-.14-2.69-1.41-4.08-4.22-3.72a2.19,2.19,0,0,0-2.18-1c-2.21-1.79-5-1.78-7.55-2.29.49-1.62-.21-2.37-1.8-2.5l-.22.35.23-.34c-.43-2.81-2.24-3.27-4.64-2.69a6.27,6.27,0,0,0-5.58-.87c-.05-2.3-1.05-1.36-2-.59a4.24,4.24,0,0,1-3.05-1.3c-1.13-1.63-2.94-.48-4.33-1-.15-.89-.4-1.65-1.57-1.24a9.19,9.19,0,0,0-4-2.65l-7.34-1.27c-.69-1.77-1.75-2.42-3.42-1.09l-2.25-.95c-.09-1.48-.4-2.56-2.09-1.16l-2.68-1.25c-.49-2.36-2.35-1.64-3.85-1.72l-.09-.14c.08-.74.16-1.47.23-2.21,3.91-.38,5.71-4.87,10.12-4.74,7.34.21,14.15-3,21.31-4.2,1.93-.32,3-.3,4.35,1.67,2.27,3.42,6.32.86,9.41,1.94.63.69,1,1.73,2.23,1.61l3.68.8c.84,4.17,3.34-.06,4.81.95a2.05,2.05,0,0,0,2.46,1.49,3.47,3.47,0,0,0,2.93,2.83A12.52,12.52,0,0,1,452.08,706.76Z" style="fill:#183948;"/><path d="M427.64,627.72c-7.26-5.45-10.63-15.73-21.59-16.85-2-.2-2.25-.63-3.45,1-4.39,6.11-9.67,11.62-12.4,18.8a13.63,13.63,0,0,1-3.45,4.6c-1.5,1.53-3,1-3.46-.36-1.05-3.11-4.41-5.38-4.58-8.16-.45-7.09-4.29-10-10.08-13.3-4.68-2.68-5.25-.22-7.63,1.89-3.4,3-5.59,7-8.66,10.26-2.54,2.72-7.48,5.2-4.88,11.09-4.44-1.54-8.8-2.86-10.93-6.39-1.79-3-5.38-3.69-6.65-7.13-.92-2.48-3.7,1.56-3.56.58.71-5-3.56-3.15-5.41-4.3-4.16-2.59-8.61-1.44-9.87,3.27-1.51,5.68-7.13,7.06-10.18,11.12-1.51,2-.53,5-2.32,5.39-5.28,1.29-3.19,5.36-3.17,8.18,0,2.34,1.93,4.55,4.27,5.77a2.6,2.6,0,0,0,3.4-.82c3.75-5.3,7.81-10.46,11-16.11s7.63-6.59,11.94-1.47a14.52,14.52,0,0,1,1.61,2.15c4.07,7.23,11.53,10.29,18,14.59,1.53,1,2.6,0,3.39-1.45,1.32-2.35,2.27-5.19,4.21-6.85,4.41-3.77,6.78-9,10.32-13.33,1.08-1.33,1.68-2.81,3.66-2.23s1.95,1.75,2,3.69c.06,7.54,7.75,16.51,14.79,17.81.37,1.13.66,2.3,1.13,3.39.33.77.84,1.68,1.85,1.47,1.35-.29,1-1.58,1.2-2.54,2.9.44,4.71-.8,5.86-3.48,1.67-3.88,4.24-7.64,5.14-11.48s4.48-3.49,5.6-6.45c2.35-6.21,4.16-6.28,8-.56,2.73,4.1,6.71,5,11.13,5.62,3.32.43,3.35-3.19,5.67-4.19C430.6,630.47,428.47,628.34,427.64,627.72Z" style="fill:#56abbd;"/><path d="M443.83,531.2a10,10,0,0,0,5.31-3.26c2.61-2.83,3.61-7.19,7.67-8.58,1.94-.66,4-3.59,6.05.1,1.11-1.31-.06-3.88,2-4.12,6.34-.74,12.29-4.62,19-2.39-1.23-10.94-3.73-21.48-9.73-30.92-3.12-3.09-2.89,1.81-4.93,2.16-4.89.84-8.58,4.72-13.08,6.84-3.19,1.51-6.54,5-9.75,7.33-9.71,7.09-17.08,16.34-25.31,24.79-2.24,2.31-3.57,5.28-5.81,7.68-4.8,5.16-9.8,10.14-13.89,16-2.1,3-3,7.82-8.56,7-.64-.1-1.49,1.86-2.38,2.72-4.26,4.1-6.89,9.5-11.31,13.58-9.57,8.84-18.34,18.58-28.14,27.15-8.32,7.29-7.75,10.11-16.42.33-3-3.36-7.42-5.33-9.09-10-.44-1.25-2.31-2.36-3.76-2.82-4.51-1.46-7.24-5.73-8.94-8.86-2.84-5.22-7.73-7.84-11.48-11.51-3.53-3.44-8-6.11-11.22-10.19-1.79-2.24-3.59-5.23-7.56-4.59-1.74.28-2.79-1.36-3.55-2.86-2.46-1.08-4-2-4.56,2.34-.32,2.6,1.7,6-1.3,8.13-2.82,2.05-3,5-2.94,8.11,2.29,2,4.25-4.41,6.85-.13,2.27,3.74,5.14,6.84,6.17,11.53,2.38,10.9.34,21.49-.44,32.25-.49,6.68.23,13.48-.63,20.19-1.26,9.73-1.48,19.81-4.36,29-2.52,8.1,1.31,17.2-4.7,24.39,2,5.55.94,11.61-.62,16.44-1.64,5-1.26,9.19-.37,13.82l.2-.05c3.71-2.54,7.95-4.15,11.79-6.51s7.66-5.73,12.11-7c8.31-2.29,17-1.54,25.5-1.46.67,0,1.84.24,1.92.57,1.05,4.33,3.47,2.13,5.61,1.27a3,3,0,0,1,3.08.11c4.8,4.07,11.61,2.83,16.77,6.76,2.49,1.89,6.86,3.9,11,1.91,1.19,1.28,2.78,1,4.28,1.08,5.43,1.31,10.07,5.42,16.12,4.52.73,2.94,3.33,2.6,5.45,3.1h0c0,.67.37,1,1,.87h2.17l2.13.45c2.9,2.18,6.45,2.15,9.78,2.89.88,2,2.57,2.12,4.41,1.82,3.48,2.69,7.61,4,11.69,5.39,2.09,2.22,4.83,1.64,7.41,1.73,1.32,3.67,4.58,3.79,7.68,4.2,2.27.77,2,4.85,5.42,4.14l3.3,1,.09.07c.2,1.19.4,2.4,2,1.16l3.18,1.32c3.71,2.22,7.63,3.15,11.89,1.87l5.37-1.29c3.7.92,5.57-4.43,9.49-2.78.23-.63.47-1.26.71-1.89,2.36-6.2,4.47-12.87,1.18-18.88-2.1-3.84-2.6-8.57-5.56-11.6-4.36-4.46-9.51-8.16-14.41-12.08a8.35,8.35,0,0,0-6.48-2c-2.44-.23-3.19-4.38-6.43-2.78l-6.37-2-.39-2.94c.22-.73-.17-1-.81-1-1.05-1.22-1.74-2.79.07-3.55,2.7-1.13,1.81-3.06.94-4.3-2-2.89-2.82-5.87-1.5-9.09s-2.32-5.47-1.59-8.57c.78-3.28,4.73-6.52.24-10A1.82,1.82,0,0,1,433,648c3.28-1.24,2-3,1.3-5.44-.86-3.2,1.57-7.06-1.76-10-.19-.16.09-1,.33-1.49,2.62-4.83,1.36-10.24,2.34-15.25s-1.86-9.77-.53-14.55c1.09-3.89,1.86-7.17.15-11.43-2.33-5.77,1.68-12.11.23-18.24-1.07-4.5.61-9.25-1.5-13.68-.64-1.36-2.36-4.23.09-4.38,2.84-.17,2.58-.63,2.3-2.85-.32-2.51,2.69-5.55-1.36-7.42,2.56-3.92,5.09-7.85,7.7-11.73C442.51,531.24,443.3,531.32,443.83,531.2ZM298.54,639.27c1.79-.44.81-3.39,2.32-5.39,3.05-4.06,8.67-5.44,10.18-11.12,1.26-4.71,5.71-5.86,9.87-3.27,1.85,1.15,6.12-.69,5.41,4.3-.14,1,2.64-3.06,3.56-.58,1.27,3.44,4.86,4.17,6.65,7.13,2.13,3.53,6.49,4.85,10.93,6.39-2.6-5.89,2.34-8.37,4.88-11.09,3.07-3.28,5.26-7.24,8.66-10.26,2.38-2.11,2.95-4.57,7.63-1.89,5.79,3.32,9.63,6.21,10.08,13.3.17,2.78,3.53,5.05,4.58,8.16.46,1.36,2,1.89,3.46.36a13.63,13.63,0,0,0,3.45-4.6c2.73-7.18,8-12.69,12.4-18.8,1.2-1.67,1.48-1.24,3.45-1,11,1.12,14.33,11.4,21.59,16.85.83.62,3,2.75,1.79,3.26-2.32,1-2.35,4.62-5.67,4.19-4.42-.59-8.4-1.52-11.13-5.62-3.83-5.72-5.64-5.65-8,.56-1.12,3-4.73,2.72-5.6,6.45s-3.47,7.6-5.14,11.48c-1.15,2.68-3,3.92-5.86,3.48-.19,1,.15,2.25-1.2,2.54-1,.21-1.52-.7-1.85-1.47-.47-1.09-.76-2.26-1.13-3.39-7-1.3-14.73-10.27-14.79-17.81,0-1.94-.12-3.15-2-3.69s-2.58.9-3.66,2.23c-3.54,4.35-5.91,9.56-10.32,13.33-1.94,1.66-2.89,4.5-4.21,6.85-.79,1.42-1.86,2.47-3.39,1.45-6.43-4.3-13.89-7.36-18-14.59a14.52,14.52,0,0,0-1.61-2.15c-4.31-5.12-8.74-4.26-11.94,1.47s-7.22,10.81-11,16.11a2.6,2.6,0,0,1-3.4.82c-2.34-1.22-4.26-3.43-4.27-5.77C295.35,644.63,293.26,640.56,298.54,639.27Zm63,34.56c-.87-1.67-2.11-.3-3.23.9a60.11,60.11,0,0,0-11.12,16.06c-.45,1-.37,3.25-2.13,1.91-5.27-4-13.31-2.41-17.4-8.23s-12.52-6.56-15.42-13.82c-.88-2.21-2.23,0-3.18.86-5.77,5.3-11.51,10.62-17.31,15.88-1.39,1.27-3,3.37-4.95,1.81s-3.2-4.31-2.05-6.78,1.92-5.19,4-7.39c5.06-5.33,9.44-11.39,16.71-14,.95-.35.6-.94.8-1.55,1.5-4.76,2.32-4,6.54-1.3a54.63,54.63,0,0,1,12.28,10.42c3.78,4.48,9.39,5.61,13.71,9,1.68,1.3,3.34.27,3.76-1.47,1.92-8,9.93-10.13,14.56-15.51.92-1.07,2.73-.09,4.34.51,7.45,2.77,12,9.17,17.76,13.92,3.55,2.92,5.25,1.59,6.39-1.24,3.17-7.92,9.34-13.19,15.43-18.54,3.6-3.16,8.32-2.44,11,2.11,2.1,3.54,4.06,7,7.18,9.75a6.11,6.11,0,0,1,1.1,2.15c.16,2.78-6.17,5.57-9.51,4.36a11.25,11.25,0,0,1-3.16-1.79c-4-3.17-7.53-2.17-9,3s-5.05,8.58-7.32,13c-.74,1.45-1.26.47-2,.12s-1.85-1-2.45-.73c-7,3.11-11-1.14-15.91-5.31C367.89,679.18,363.66,678,361.53,673.83Zm48.7,45.84a2.44,2.44,0,0,0,.1-.24A1.73,1.73,0,0,1,410.23,719.67Zm29,9a.6.6,0,0,0,.59.11A.6.6,0,0,1,439.2,728.63Zm7-29.79Zm2.21.43.13,0a1.83,1.83,0,0,0-.13.24,1.83,1.83,0,0,1,.13-.24Zm-14.67-.08h0c.84,4.17,3.34-.06,4.81.95a2.07,2.07,0,0,0,2.46,1.5h0a3.47,3.47,0,0,0,2.93,2.83,12.52,12.52,0,0,1,8.12,2.3c1.45,3.6,3.69,6.25,7.67,7.35,3.7,1,3.51,5,4.47,7.62,2.77,7.59,1.52,9.23-7.39,12.32h0l-3,.15h0c-.89-1-1.68-2.22-3.34-1.79l-2.14-.14c-1-1.11-2.15-.93-3.36-.49-.14-2.69-1.41-4.08-4.22-3.72a.65.65,0,0,1-.09.08.65.65,0,0,0,.09-.08,2.19,2.19,0,0,0-2.18-1c-2.21-1.79-5-1.78-7.55-2.29a3.07,3.07,0,0,1-1-.23,3.07,3.07,0,0,0,1,.23c.49-1.61-.21-2.37-1.79-2.5-.44-2.8-2.24-3.26-4.64-2.68a6.26,6.26,0,0,0-5.59-.86c-.86.78-1.4.46-1.82-.27.42.73,1,1,1.83.26-.05-2.3-1.05-1.36-2-.59a4.24,4.24,0,0,1-3.05-1.3h0c-1.13-1.63-2.94-.48-4.33-1l1,2.48c1.32,0,2.68.08,3.36-1.42-.68,1.5-2,1.4-3.36,1.67v0a2.44,2.44,0,0,0,0-.27l-.07.05c-.29-1-.59-1.76-.89-2.53s-.4-1.65-1.57-1.24h0a9.1,9.1,0,0,0-4-2.65l-7.34-1.27h0c-.69-1.77-1.75-2.42-3.42-1.09l-2.25-.95a3.2,3.2,0,0,1-1.22-.26,3.2,3.2,0,0,0,1.22.26c-.09-1.48-.4-2.56-2.09-1.16l-2.67-1.25h0c-.49-2.36-2.35-1.64-3.85-1.72l-.09-.14-2.37-.2,2.37.2c.08-.74.16-1.47.23-2.21,3.91-.38,5.71-4.87,10.12-4.74,7.34.21,14.15-3,21.31-4.2,1.93-.32,3-.3,4.35,1.67,2.27,3.42,6.32.86,9.41,1.94h0c.63.69,1,1.73,2.23,1.61Z" style="fill:#e36066;"/><path d="M267.47,720.85c-3.66,3.12-2,5.7.21,8.43.86,1,1.85,2,2.78,3,3.29.46,5.64-2.38,9.19-2.12,10.53.79,21,1.34,31,5.41,4.28,1.74,9.07,2.46,13.71,3.06,6.18.8,10.9,5.55,17.18,6,.58,0,1.34,1.21,1.58,2,.68,2.21,2.57,2.45,4.27,3.38,3.79,2.08,9.07.62,11.78,5.06,3.68-2.55,9.45-1.17,11.78-6.26-3.19-2.6-7.24-3.52-10.67-6-6.15-4.46-14.69-4.67-20.53-10.21a3,3,0,0,0-1.43-.7c-7.21-1.57-13.66-5.25-20.86-7-10.47-2.61-21.14-4-31.62-6.49-1.58-.37-4.38-.86-5.84,1.54-1.08,1.79-1.47-.05-2.25-.24-3.82-.92-4.36-4-5.48-6.81l-.2.05C269.17,714.75,269.84,718.83,267.47,720.85Z" style="fill:#e36066;"/><path d="M270.51,732.3l-.05-.06h0Z" style="fill:#e36066;"/><path d="M435.69,626c0,.12.17.25.26.38.11-.11.3-.22.31-.34s-.17-.25-.26-.37C435.89,625.76,435.7,625.87,435.69,626Z" style="fill:#e36066;"/><path d="M322.86,702l.32-.32c-.16-.11-.32-.22-.49-.32l-.15.29C322.65,701.78,322.75,701.9,322.86,702Z" style="fill:#e36066;"/><path d="M270.51,732.3l-.06-.06-.14.39Z" style="fill:#e36066;"/><path d="M253.65,312.63l.07,0-.15,0v0h.14Z" style="fill:#183948;"/><path d="M470.54,459.4c-1.41-4.82-.45-11.14-2.38-14.4-4.47-7.57-2.3-16.17-6-23.32-1.93-3.78,2-7.58-.94-10.91-2.26-2.55-1.1-5.5-1.14-8.31,0-1.61.64-3.62-.09-4.77-3.42-5.39.09-12.67-4.92-17.55-.06-.05.35-.52.43-.82,1.7-6.23-.59-12.51-1.85-18.13a151,151,0,0,1-3.06-19c-.29-3-3.33-5.49-1.64-8.82-4.91.58-2.74-3.75-3.76-5.72-2-3.83-4.18-8.41-7.91-9.26-4.5-1-5-4.62-7.41-6.92,2.21-1.18,4.13-2.59,4.43-5.36,1.73-1.53.78-3.58,1-5.4,3.63.26,4.83-1.2,3.28-4.62a.46.46,0,0,0,.32-.64c4.92-.57,2.88-4.92,4.08-7.51,3-.08,2.92-2.41,3.22-4.46,4-3.71,2.36-9.93,6-14,.43-.47.21-2.69,1.53-4.39,1.68-2.18,3.34-5.28,2.14-8.61-.37-1.08-.74-2.16-1.12-3.23,4.73-.53,2.41-4.61,3.36-7,2.09-5.18,1.19-9.9-3.33-13.6-.06-.87-.21-1.69-1.14-2.08-1.52-1.3-.19-5.48-4.25-4.21-3-1-4.31,1.85-6.42,2.89-.7-1.14-2-2.39-2.62-.62-.74,2-3.06,2.29-3.61,4.2l-.2.21c-3.26,2.62-6.48,5.23-10,7.59-2.49,1.69-5.7,3.88-7.1,7.22l-1.41,1.27c-.72-1.12-1.22-1.29-2.27-.1-3,3.42-4.16,8.3-8.46,10.68a1.82,1.82,0,0,0-1,2.19c-4.64.32-6.64,2.9-6.67,7.45a3.15,3.15,0,0,1-1.63,2.46c-4.55,1.3-6,5.67-8.25,8.84-1.81,2.57-4.34,5.47-4.06,9.24-2.22.57-.68,2.28-1,3.41l-2.14.63c-2.23.81-2.53,2.94-2.33,4.66.38,3.28-1.21,2.64-3.07,2a1,1,0,0,0-.27-.94L375.1,291l-.05-1.08c.27-3.23-3.13-5.83-1.67-9.34a24.57,24.57,0,0,0-2.64-1.43l-.06-1.12a2.73,2.73,0,0,1-1-1.73,2.73,2.73,0,0,0,1,1.73c1.91-2.13,1.62-3.79-1.05-5l-1.35-1.47c-.48-1.47.21-2.61.83-3.91.78-1.64.25-2.43-1.55-1.23-1.26-.3-2.32-.78-2.08-2.38,1.46.33,2.65.16,1.65-1.68a17.63,17.63,0,0,0-2.69-3.07.47.47,0,0,0-.25-.69c-1.19-2.09-.37-5.18-3.18-6.47.68-1.68-.63-2.87-1.05-4.28.54-.46,1.09-.88.5-1.72-2.09-2.95-5.3-5.7-5.91-8.93a18.94,18.94,0,0,0-4.45-8.76l-.16-2.2c-.13-2.53-2.85-2.7-4-4.34,1-2.61-1.51-3.62-2.38-5.37-3.06-1.39-3-5.06-5.22-7.09-1-.68-2.14-1.27-2.29-2.69,2-4.71-2.41-4-4.44-5.24-.41-1.85-.83-3.71-1.24-5.57,4,2.86,4.42,2.55,5.54-4.26a.89.89,0,0,0,.38-.89c2.75-1.63,2.68-4,1.84-6.66a.51.51,0,0,0,.4-.68C340.4,183,342,182,341.51,180c-.57-2.47,1.54-3.61,2-5.49.13-1.06.26-2.12.4-3.17,2.68-5.1,4.65-10.36,3.54-16.28,1-1.63,2.58-3.14,1.28-5.33.19-5,2-9.9,2.25-14.78.26-4.36,1.59-8.86.33-13.3l-.34-2.13c.19-4.69,1.23-9.45-1-14-2-2.69-1.57-5.69-1.11-8.7,0-2.24,1.84-4.55.16-6.68-2.51-3.16-2.72-6.88-3.1-10.61,1.58-2,1.51-3.31-1.37-3.56L343.51,74c1.81-1,1-2.76,1.24-4.22.17-2.12-2-2.22-2.9-3.35-.58-.7-2.22-1.87.25-2.46a2.61,2.61,0,0,0,2-3.28c-.75-2.61-2.73.57-4-.55.12-.75.23-1.5.35-2.25.77-.23,2.25-.27,1.56-1.44-3.14-5.35-1.26-13.74-9.57-16a1.93,1.93,0,0,1-1.35-1.4,11.51,11.51,0,0,0-11.39-7.47c-3.15.37-6.53.17-8.61,3.32-.47.71-1.92.93-.86,2.39,2.3,3.2,4.42,6.52,6.62,9.8.4,4.09,4.66,6.23,5.38,9.93,2.49,12.89,4.59,25.86,6.83,38.8a19.81,19.81,0,0,1,.7,4.71c-.21,2.89,1.08,5,2.84,7a3.17,3.17,0,0,0-.86,3.23c-.84,5.85,1.93,11.42,1.37,17.26l.33,2.12c.78,2.26-4.21,3-1.59,5.64,1.77,1.79.92,2.93.07,4.94-.93,2.18-4.8,5.34.12,7.73.23,1.19.39,2.36-1,3l0,0,0,0c-.92-1-1.73-1.53-2.14.36.1.62.21,1.24.31,1.85l-1.47,2.46a2.35,2.35,0,0,0,0,3.12,44.58,44.58,0,0,0-1.87,5.88c-.26,1.4-1.54,3.6,1.49,3.9.1,1,.28,2-.88,2.56-1.23-.08-2.09.21-1.73,1.72-.73,1.22-1.92,2.35-.64,3.9-1.92,1-4.26,1.75-3.5,4.76l-1.8,1.06c-.45-2.92-2.65-4.06-5.06-5l.05-.28-.23-.16c-1.07-1.91,1.74-5.2-.69-5.8-4.78-1.19-6.08-5.53-9.11-8.21.31-2.3-1.38-3.71-2.4-5.42.19-.71-.06-1-.77-.77l-4.13-.38h0l-.54-2.26c-2.21-2.24-3.56-5.43-6.95-6.4-.73-1.12-.53-2.93-2.37-3.23a5.31,5.31,0,0,0-4.36-3.12c1-4.45-2.59-5.15-5.39-6.48h0c-3.3-5.8-9.06-9-13.92-13.15-2.42-.35-2.95-2.75-4.45-4.09-.26-1.14-.75-2-2.13-1.8l-2.1.47c-.76-.32-1.91-.15-2.06-1.3-.53-4-3.31-4.63-6.64-4.43-1.62-.6-3.7-.45-4.33-2.67-1-3.49-3.6-3.47-6.43-2.86-1-1.08-3.52-1.21-2.41-3.69,3.36-1,2-4.33,3.06-6.43s-.87-3.59-.93-5.45l2.08-2L234,87.51l1-2.58c1.59-3.13,2.48-7.18,1.6-9.82-1.36-4.08-.57-7.9-.95-11.8.7-1.75-.74-1.77-1.73-2.14-.79-4.56,2.82-9.78-2.06-13.77-.22-.17,0-.9,0-1.37.13-1.09-.06-1.39-1.34-2.08-.07-.72-.14-1.45-.22-2.18,2-2.89.26-5.82-.88-8-2.29-4.44-4.95-8.6-4.16-13.87a13.17,13.17,0,0,0-.28-3.57c-.53-5.23-10-5.46-7-12.6,0-.05-.84-.46-1.28-.73-4-2.48-8.51-3.1-13.07-3-3.23.09-6.65,6.1-4.39,7.72,3.53,2.53,3.09,6.13,4.27,9.23a163.67,163.67,0,0,1,9,31.59,32.18,32.18,0,0,0,5,12.67c.17,1.52,1.25,2.46,2.22,3.47-2.65,1-3.19,2.82-3.32,5.76-.2,4.52,3.28,9,.07,13.74-.35.52-.62,5.65,2.94,6.88-2,1.34-1.17,3.82-2.11,5.83-3.1-2.09-6.41-2.28-9.76-2.26.29-1.29,3.9-3.24-1-3.47-1.82-.09-4.52-.52-5.84-1.58-7.72-6.23-16.22-9.64-26.21-9-1.58-1.33,1.61-4.65-2.13-5.07a3.77,3.77,0,0,0-3.11-.55c-.49-1.68-1.86-2.29-3.35-2.74-5.87-.82-9.3-5.32-13.35-8.89-.68-1.48.37-4.24-2.83-3.88-4.09-1.72-4.29-6.66-7.51-9.1-.64-1.72-1.08-3.6-3.26-4.11l-3.28-2c-.22-1-.77-1.71-1.94-1.64l.13-.07c-1.85-1.92,1.17-4.19-.45-6.12.47-2.79-1.61-2.09-3.06-2.23,0-1.46-.66-2.21-2.14-2.18L128,29.93c-.13-3.87,2.45-9.35-5.2-8.75l-1-1.05-1.62-4.2c-.72-2.1,1.62-1.91,2.31-3-9.22-1-9.87-.63-14.19,7.55.8,1.49,3.52-.86,3.7,1.87l0,.06c-1.23.43-2.78-.05-3.67,1.33l2.42.84c-.52,1-1.67,2.48-1.42,2.78,1,1.16,2.47.13,3.76.14,1.82.75,2.58,1.77.9,3.42-1.12.87-3.43,1.38-1,3.3-.31,2.39,2.37,3.28,2.68,5.36.91,2-1.68,5,1.34,6.14,4.16,1.54,2.73,5.9,4.51,8.7,2.67,4.19,5.87,9.47,10.93,10.18l1.12.88c-1.81,1.83-2.73,3.35.6,4.75,1.69.7,3,2.27,4.51,3.45l-.06.28.23.17c2,2.39,3.63,5.23,6.68,6.59l-1.08,2.4c-3.74-1.38-8.26-1.65-11.23-.2-5.68,2.75-9.68.94-14-2.11.18-1.1,1.58-2.08.19-3.32-1.79-1.59-2.77,1.07-4.3.74-2.83-.14-5.69.81-8.51-.18-2.72-.22-3.94,1.92-5.51,3.5l-1,.09c-1.37,0-2.87,0-3.37,1.53-.55,1.74,1.06,1.74,2.09,2.13,0,.77-.07,1.55-.11,2.33-.69.37-1.55.69-1.14,1.72a1.09,1.09,0,0,0,1.51.71,64.19,64.19,0,0,0,17.71,7.33c.54.12.78,1.37,1.35,1.58,3.77,1.37,8.12,2.19,11.42.4,2.63-1.41,3.82-1.62,4.87.8s2,2.82,3.73.78c.6-.7,1.35-1.42,2.13-.31,1.88,2.67,4.57,2,7.22,2.21,4,.38,7.7-1.63,12-.59,2.24.54,6.87,2.06,8.83-1.4,1.68-3,3-4.4,6.57-3,2.22.85,4.59,4,7.25.57a2.43,2.43,0,0,0,.19.47c3.94,6.27,10.3,8,17,9,1,.15,2-.2,2.91.83,4.74,5.46,12.62,5,18,9.32.41.34,1.81-.55,2.76-.87l0,.12c.11.68.05,1.86.35,2,3.7,1.2,5.59,5.09,9.76,5.93,3.31.67,7.64,2.2,9.12,4.75,2.9,5,7.8,6.25,11.92,9l1.23,1a19,19,0,0,0,10,10.32l.12.06c6,7.88,13.46,14.34,21,20.68,1.95.44,2.85,3.26,5.39,2.35,1.13,1.68-1.33,4.74,2.11,5.53,2.12,1.89,2.78,5,5.54,6.38,1.18,4.92,4.91,8.27,7.91,11.9,1.78,2.17,2.93,5.27,6,6.32l1.63,1.21c-.9,1.58-1,3.69.38,4.41,5.95,3.1,3.06,12.57,10.56,14.4A13.83,13.83,0,0,0,326,225c.22,2.6,1.68,4.52,3.16,6.59,5.31,7.45,11,14.74,13.6,23.73.33,1.16,1.65,4.8-.79,4.07-4.22-1.26-8.79,1.28-12.59-1.66-2.44-1.89-5.31-2.63-8.23-3.26l-2.1.53-2.27-.47c-1.31-2.26-2.65-.36-4,0l-.66-1.12c.43-.73.91-1.57,0-2.16-.39-.26-1.17.07-1.78.13l-2.23,1-7.62-5.55c-4.21-5.89-17.9-5.06-21,1.34-.65,1.36-.1,2.39.77,4,3.55,6.54,10.28,9,15.37,13.54l.18.12c1.69,2.3,3,1.39,4.3-.45h.35l.14-.32c.53.08,1.51.11,1.53.26.45,3.83,2.8,4.82,6.27,6.25,4.9,2,10.25,2.36,14.83,4.65,5.08,2.55,10.77,1.29,15.92,3.77,2.91,1.4,7.2.81,10.6,0,2.57-.62,3.25.13,3.83,2,1.19,3.91.3,8.62,4.48,11.36.11.07-.1.62-.15.94,0,.71,0,1.42,0,2.13-1.34,4.87,2.64,9,1.87,13.81-4,4.64-9.71,7.6-14.94,9.46-5.65,2-9.85,5.38-14,8.89-2,1.66-3.69,1.1-5.11,1.06-2.91-.07.53-1.81-.28-3-1.36-2.05-.42-4.58-.28-6.78.21-3.3,0-5.6-4.19-5.41,2.89-4.46,2.91-4.49-1.74-7.18-1.72-1-1.59-2.21-.55-3.5,1.29-1.59,2-3.41.08-4.67-4.36-2.91-8.64-6.09-13.74-7.65-2.65-.81-9,4.92-8.81,7.75.37,4.85.78,9.69,1.18,14.53-3.52,1.48-3.43,4.42-3,7.48-1.09,1.8,0,3,1.16,4.17.78.76,1.7,2,1.09,2.77-5.38,6.73-2.37,14.26-2.18,21.5.08,3-.31,5.95-3.18,7.29s-3.27,6-7.44,5.38a4.38,4.38,0,0,0-.83-3.85c.09-.54.18-1.07.26-1.61.16-.3.52-.75.43-.86-4.89-6.3-8.39-13.37-11.7-20.57-.83-1.81-1.89-4.33-4.79-2.25-3.1-1.75-1.65-5.06-2.59-7.55-.73-2.62-3.1-3.27-5.15-4.3-.14-2.08-1-3.45-3.33-3.21s-2-1.34-2-2.7c-.21-.9-.41-1.8-.62-2.71l-1.39-.07c.16-3.14-1.8-4.53-4.44-5.35l-.09-1.1c-2.57-7.47-9.58-10.5-15.06-15.06a1.88,1.88,0,0,0,.21-1l.81-.84-.88-.32c-.59-1.41-2.87-.35-3.17-2.18.68-.07,1.68-.38,1.36-1a4.08,4.08,0,0,0-3.58-2.23l-2.11-1.21c-.73-2.16,6.7-3.54.6-6.21l1.68-5.21q6.58-6.15,3.29-15c-.06-.86-.13-1.73-.19-2.59,1.15-.36,2.67-.53,1.16-2.26l-.67-2.33a2.69,2.69,0,0,0,1.24-3.05l.45-3.2c2.35-2.64-1.14-5.64.55-8.39,1.87-3,.86-6-.58-8.89l-.72-3.19c.39-1.36-.36-1.83-1.53-2-.77-1.86,1.62-3.86-.26-5.67.07-2.84-.52-5.43-2.83-7.35a1.66,1.66,0,0,0-.24-2.42h0c-.1-.7-.2-1.39-.31-2.09.09-.76.17-1.53.25-2.3.79-1.05.7-1.68-.79-1.66L223,196.31c-1.28-.88-.94-2.29-1.15-3.52.58-4,.16-4.84-2.07-4.32-.9,0-1.78,0-2.16-1.05.63-1.08,1.74-1.86,1.73-3.33-.08-7.48-9.07-8-11.33-14.26-.42-1.15-7.27-.91-11.09-.94-2,0-4.79,2-5.69,3.85-1.32,2.7,2.29.84,3,2.09.17.29.45.63.42.92-.7,7,5.76,10.53,7.79,16.19l.52,1.93c-.69,1.6-.06,2.39,1.57,2.54a2.5,2.5,0,0,0,2.18,1.85c-1.21,6.43-.36,12.17,5.48,16.23l.09,2.08c-.7,7,2.12,13.63,2.63,20.52a1.31,1.31,0,0,0,.11,2.1c-.88,3.56-2.72,7.07-.52,10.77-.68,1.65.69,2.85.94,4.3-1.45,0-2.48.5-2.45,2.17-1,1.38-.06,2.1,1,2.78.39,1-.23,1.54-.86,2.1l-.87.48c-1.57.74-.58,2.25-1,3.33-1.75.66-1.37,1.9-.86,3.17-.44,1.14-1.43,1-2.36,1l-.38.42h0l.38-.42-3.37-2.73c-2.16-4.56-7.42-2.32-10.52-4.83,0-.14.16-.31.11-.4a4.18,4.18,0,0,0-.47-.57c-.73-1.2-1.33-2.79-3.06-1l-2.15.43c-1.69-3.66-6.26-3.17-8.55-5.95h0c-.23-.79,0-2-1.24-2s-1.52,1.19-1.8,2.19l-.17.21-1.24-.31-.05-1.09c-.23-1.28,1.57-2.78.38-3.6-1.82-1.27-3.9-.46-5.7.69-1.07-.47-1.18-1.5-1.41-2.47.43-.83.64-2.29-.18-2.29-5,0-7.61-4-11.34-6.11l-2.16-.19L153,238.15c-1.58-1.49-3.13-3.05-5.46-1.28l-2.09-.89-.08-1.08c-.22-4.39-4.08-.15-5.28-2.23l-1.09-1-1.5-3.26.15-3.19c1.05-2.81.78-5.34-1.59-7.42.25-.77.51-1.54.77-2.31,4.1-2.15,1.85-4.32,0-6.49a.76.76,0,0,0,.1-.85c.17-1.52,3.92-3,0-4.58.77-2.41,1.64-4.81.49-7.35,1-3-.35-6,0-8.9.54-4.94-1.74-2.89-3.8-2.09,0-1.06,0-2.12,0-3.18,3.31-3.73,2.95-5.41-2.11-9.75.48-1.43.24-2.57-1.3-3.16.32-1.6.49-3.41-1.63-3.56-2.56-.2-1.37-1.76-1.42-2.92,3.21-.31,1.32-3,.87-3.23-3.67-2-3.94-6.16-6.12-9.06l-2.15-1.08c-1.36-.94-2.71-3.7-4.3-.63-.94,1.82-1.47.7-2.25.29-3.5-1.84-6.62-2.78-7.14,2.85l-1.52-.19h0s-.14.12-.14.12l.26,0c.81,4-.18,8.94,5.33,10.6.14.46.29.91.44,1.37-.66,1.7-1.21,3.46.83,4.56,2.55,1.37,1.56,3.41,1.23,5.35l.6.92c.28,1.39,1.77,1.25,2.55,2,0,1.48,0,2.95-.07,4.43-1.13,4.71,2.68,8.28,2.76,13,.11,6,1.12,12.1.74,18.09-.1,1.62,3.31,2.49.53,4.22s-3.41,5.08-5.25,7.54L111.83,222c-1.32-4.31-5.89-1.7-8.22-3.86v-.34l-.31-.12c-1-1.63-1.44-3-4.18-3.67-5.15-1.31-9.68-4.91-14.73-6.88-2.28-.89-.81-3.27-3.17-4.25-5.32-2.21-9.77-6.09-14.28-9.73-2.92-2.35-6-4.39-10.13-4.1-.74.05-4.95,1.44-2.95-2.65l1.11-.84,1.85-.78L55,183.82c-.57-.76.27-2.81-2-2-1.41.49-2.91-.44-2.44-1.8,1.55-4.57-1.39-6.12-4.55-7.76-1.11-.58-1.51-2.36-2.14-2.71-3.3-1.87-.51-8.42-6.33-8.06-2.06-2.65.44-4.54,1.22-7H34.47L30,152.76c-3.71-2.49-4.74,2.34-7.4,2.7-1-.47-1.84-2.22-3.12-1.07-1.57,1.4-1.91,4-.88,5.28,2.29,2.91,3.18,6.4,4.94,9.49.17.8.07,1.74,1.09,2.1,1.61,1.59.16,4.52,2.53,5.78l1.57,1.83c.62,1.08,1.18,2.21,2.51,2.61,1.13,1.35.4,3.6,2.22,4.62,5,2.83,5.27,9.37,9.84,12.53l.29.36,2.6,1.51c.13.34.27.69.41,1l-2.49,1.18c-1.77-.07-2.76-1.48-4.05-2.38-1.54-1.06-4.5-1.56-4.8-.81-1.53,3.85-3.23,1.52-4.58.33-2.78-2.45-5.08-5.23-9.38-2.21-1,.7-1.3-2.78-3.37-3.49-2.71-.93-1.52,4.9-3.68,2.22-3.35-4.13-5.92-1.45-8.85,0a2.21,2.21,0,0,0-2.63,1.4l-.13.11h0c-3.88,1.74-2.82,5.45-1.18,7,3.12,2.92,6.1,6.89,11.31,6.41,3.34,3.94,8.27,5.59,12.71,7,5,1.61,11.09-1.36,16,2.68a1.19,1.19,0,0,0,1,.13c3-1.13,5.76.48,8.59.66,5.58.35,11.51,2.47,16.79-1.51a2.33,2.33,0,0,1,2,0c3.74,1.86,8.06,2.23,11.53,4.86,3.28,2.49,7.14,4.29,10.16,7s6.8,2.15,10.07,4.3c5.33,3.52,11.9,5.15,18,7.57l.37.39.53-.1c4-.18,7.4,2.22,10.26,3.9,9.82,5.77,20.78,9.54,29.8,16.7a3.42,3.42,0,0,0,3.19-.3c2.89,3.68,3.94,4.29,6.5,3.81l1.53-.18c1.42,2.29,2.5,5.51,6,2.23l1.62,2.2c-.46,1-2.1,1.42,0,3.1,4.05,3.25,9.08,2.77,13.41,4.66a.7.7,0,0,0,.19.89c2.1,3.54,6.18,4.6,9,7.21,1.06,1,1.91,0,2.76-.55l1.21.85c.14,1.91,1.76,2.45,3.06,3.3,0,1.41,1,1.92,2.15,2.15,3.37,1.81,3.67,8,9.32,6.62.23-.06.93.64.93,1,.1,6.42,5.92,8.71,9.18,12.84l0,0c1.29,4.34,6.2,5.76,7.9,9.87.64,1.54,2.63.51,4,.73l.82,1.24c-1,3.26-1.07,6.05,3.43,6.35,3.92,6-3.2,3.42-4.26,5.55-1.21-.2-2.47-2.23-3.62.08-2.28.4-3.25,4.19-6.35,2.45-3.52-.43-6.85-.24-9.27,2.9l-.31,1.9c-1.4-1.64-2.09-4.71-5.33-2.67l-3.2-.37c-1.6-1.16-2.84-1.19-3.34,1.08a6.35,6.35,0,0,1-4.19,1c-4.19-2.09-8.1-1.33-11.84,1.18a7,7,0,0,0-5.48.12c-3.87-3.4-9.14-.68-13.41-3.08-1.45-.82-3.84-.09-5-2.17-.67-1.2-1.63-1.12-2.73-.56-4.56,2.34-9.51,1.32-14.31,1.6-4,1-6.13,4.17-8.06,7.44-1,1.7-1.1,3.11,1.59,2.81,1.59.67.54,3.77,3.19,3.45.11,2.22,1.69,2.17,3.27,2.11,4.51,1.76,8.94,4.13,14,1.88,1.23,1,2.32.24,3.44-.23,2.88,2.16,5.25,7.08,9.47,1.7l2.19-.06c1.63,1,3.16,2.42,4.91,2.76,2.81.54,6.09.86,5.89-3.75.92-.47.93-1.34,1-2.19,3.89,5.17,3.89,5.17,11.89,5.33l3.22-.46c1.84.58,3.15-.36,4.39-1.52l.51,0,.51-.12c1.1.63.72,3.59,3.2,2a2.38,2.38,0,0,0,2.13-1.19c1.28-1.35,3,.46,4.34-.66,1.49.31,2.93,1.21,4.51.35l4.22-.78c2.56.06,4.61-1.56,7.16-2,5-.8,9.73-3.1,14.29-5.48,1-.38,1.1-1.14.79-2h-1.79l-11.89,3.25h0l11.89-3.25h1.79c2.2-1.59,2.24-1.56,2.79,2.16,1.59,1.63,3.94,3,3.94,5.44,0,4.94,3.05,8.2,5.62,11.79,3.25,5.19-2,7.74-4.31,9.43a124,124,0,0,0-13,11.41c-1.48,1.42-2.47,3.17-4.09,4.56-3.48,3-9.75,3.58-9.53,10.16,0,.66-1.15,1.17-2.17,1.19-4.72.08-7.63,3.25-10.58,6.31-3.1,3.22-6.65,6.13-9.08,9.78-1.29,1.94-3.43-.09-4.11,2-1.37,4.23-4.44,7-8.32,8.94-.61.31-1.6,1.19-1.53,1.33,2.5,4.73-3.64,5.87-3.86,9.41a21.13,21.13,0,0,0,6.27,4.4c6.93,3.27,11.33,8.68,10.39,17.05,2.44,1.17,3.62,2.79,2,5.44-.14,1.13.8,2.62-1.07,3.16-.1,3.77.06,7.57-.37,11.31-.37,3.23-1.49,6-5.71,6.41-1.92.16-3.71,1.77-5.56,2.72a64.22,64.22,0,0,0,15.25-1.72c8.3-1.91,16.57-4,24.92-5.61,8.89-1.74,17.93-2.51,26.74-4.88,2.69-.72,5.28-1.88,7.87-2.37,4.27-.8,8.81-.21,13.43-.21-2.11,11-3.68,22.64-6.66,33.89-2.78,10.5-3.09,21.43-6.43,31.76.76,1.5,1.81,3.14,3.55,2.86,4-.64,5.77,2.35,7.56,4.59,3.26,4.08,7.69,6.75,11.22,10.19,3.75,3.67,8.64,6.29,11.48,11.51,1.7,3.13,4.43,7.4,8.94,8.86,1.45.46,3.32,1.57,3.76,2.82,1.67,4.71,6.1,6.68,9.09,10,8.67,9.78,8.1,7,16.42-.33,9.8-8.57,18.57-18.31,28.14-27.15,4.42-4.08,7.05-9.48,11.31-13.58.89-.86,1.74-2.82,2.38-2.72,5.54.82,6.46-4,8.56-7,4.09-5.82,9.09-10.8,13.89-16,2.24-2.4,3.57-5.37,5.81-7.68,8.23-8.45,15.6-17.7,25.31-24.79,3.21-2.34,6.56-5.82,9.75-7.33,4.5-2.12,8.19-6,13.08-6.84,2-.35,1.81-5.25,4.93-2.16C474.72,474.2,472.69,466.79,470.54,459.4ZM109.48,86.73h0a1.33,1.33,0,0,1-.21,0A1.33,1.33,0,0,0,109.48,86.73Zm-5-4Zm-1.36,0h0Zm48.23-.4a5.29,5.29,0,0,1-.54-.13A5.29,5.29,0,0,0,151.32,82.35ZM150.13,82l-.68-.24ZM123.88,27.74h0l-3.16,0ZM131,42.38a1.94,1.94,0,0,0,1,.29A1.94,1.94,0,0,1,131,42.38Zm-1.69-6a1.85,1.85,0,0,0,.91.83,3,3,0,0,0,1.21.21c.57.78-.4,2.3-.72,3.51.32-1.21,1.29-2.73.72-3.51a3,3,0,0,1-1.21-.21,1.85,1.85,0,0,1-.91-.83,2.81,2.81,0,0,1-1.16-2.62A2.81,2.81,0,0,0,129.26,36.4Zm-4.95-7.23a1.6,1.6,0,0,0,.82.6A1.6,1.6,0,0,1,124.31,29.17ZM149.14,85l.06.32-.06-.32c.11-.34.23-.68.35-1C149.37,84.33,149.25,84.67,149.14,85Zm14.45-2.5.5-.39h0Zm60.09-9.07c0,.08.07.15.1.22h0C223.75,73.59,223.71,73.52,223.68,73.44Zm-22.91,25a1.25,1.25,0,0,1-.43.22A1.25,1.25,0,0,0,200.77,98.45ZM288,162.22h0a7.6,7.6,0,0,0,.35-.7A7.6,7.6,0,0,1,288,162.22Zm11.74,95.09-.11-.57-.38.15h0l.38-.15.11.57Zm-274-98.42,0,0,0,0Zm1-4a2.67,2.67,0,0,0-.82,1.26A2.67,2.67,0,0,1,26.79,154.9ZM23.71,164a2.45,2.45,0,0,1-2.13-1.83,3.4,3.4,0,0,1-.08-.57,3.4,3.4,0,0,0,.08.57A2.45,2.45,0,0,0,23.71,164Zm6.4-6.8,3.55.4c.42,1,1.48,1.81,1.14,3.11.34-1.3-.72-2.08-1.15-3.11ZM4.29,201.11a3.74,3.74,0,0,0,2.13.46A3.74,3.74,0,0,1,4.29,201.11Zm3.15.35h0a9.14,9.14,0,0,0,2.11,5.18A9.14,9.14,0,0,1,7.44,201.46Zm215.21,14.32h0c-.12-.31-.17-.78-.38-.87C222.48,215,222.53,215.47,222.65,215.78Zm-12.93-23.23c-.3-.13-.66-.42-.88-.34.22-.08.58.21.88.33Zm-1.41,78h0Zm-6-2.3a10.11,10.11,0,0,1-2.63-1A10.11,10.11,0,0,0,202.35,268.22Zm-4.89,7.29h0a7.22,7.22,0,0,0,.33-.7A7.22,7.22,0,0,1,197.46,275.51ZM158,251.88h0l-.9-.39ZM127.78,191h0c-.12-.3-.17-.76-.38-.85C127.61,190.19,127.66,190.65,127.78,191Zm-11.06-33.51c.13-.3.26-.6.4-.9h0C117,156.84,116.85,157.14,116.72,157.44ZM98.62,226l-.83-.36.83.36ZM212.75,355.5a1.47,1.47,0,0,1,.08.25,1.47,1.47,0,0,0-.08-.25Zm.39.87c-.11,0-.18-.19-.23-.36C213,356.18,213,356.33,213.14,356.37Zm.91-.31c-.1-.23-.15-.55-.26-.74.11.19.16.51.26.74Zm20.56-7.42h0l-.39.9Zm-7,6a5.19,5.19,0,0,0-.27,2.27c0,.68,0,1.36,0,2,0-.68,0-1.36,0-2A5,5,0,0,1,227.62,354.62ZM340.27,221.28h0a7.49,7.49,0,0,0-.35.69A6.41,6.41,0,0,1,340.27,221.28ZM352,255.1c-.3-.13-.67-.43-.88-.34.21-.09.58.21.88.34Zm-14.68-96.48a1.69,1.69,0,0,0,.45-1A2.15,2.15,0,0,0,336,155.9a2.15,2.15,0,0,1,1.78,1.75A1.63,1.63,0,0,1,337.33,158.62Zm-.66-72a5.65,5.65,0,0,1,.25.73h0A5.65,5.65,0,0,0,336.67,86.65Zm.87,22.63c.06-.15.17-.31.25-.47-.08.16-.19.32-.25.47l-.25-.09Zm2.36,14.79.91.39-.91-.39Zm-2.45-31.32-.42.41.42-.41.28.3ZM337,108h0a5.57,5.57,0,0,0-.34.7A7.41,7.41,0,0,1,337,108Zm-5.84,43.63.15.13Zm-11.1,48.76h0l0,0Zm-56.48,143.2a5.7,5.7,0,0,0-.7-.35,5.08,5.08,0,0,1,.7.35ZM332,421c-1.54,3.19-.34,5.95-1.32,8.7a25,25,0,0,1-14.95,15.45,15.51,15.51,0,0,1-9.29.32c-5.22-1.92-11.87-2.81-13.77-9.52-1.12-4-3.22-7.42-4.64-11.19-2-5.24-1.22-6.26,4.21-6.17,4.15-.42,6.29,1.45,7.24,5.11a22.28,22.28,0,0,0,1.84,5c1.47,2.67,1.92,7,6.06,6.45,4.86-.68,10.43-.69,12.85-6.67,1-2.54,3.93-4.22.21-7.5-1.63-1.43.56-6.26-4-7.44-1.8-.46-2.5-2.22-.18-3.43,3.74-1.94,7.84-2.14,11.17.25S333.27,418.36,332,421Zm18-49.43c-1,6.38-3.09,12.13-4.91,18.13-.8,2.65-4.08,4.3-2.15,8.4,1.09,2.32-2.76,4.12-5.23,2.22-5.33-4.08-10-3.52-15.7-.33-3.13,1.76-7.87.09-10.81-2.19-3.12-2.41-5.75-1.79-8.74-.82-5.08,1.64-8.06-.76-11-6.2-.13,6.19-3.5,4.71-6.24,3.53-3.07-1.32-2.83-4.25-1.9-6.74,2.65-7.1,10.9-11.08,18.77-10.64,4.81.26,9.34,3.3,14.38,1.26,1.47-.6,1.91,1.36,2.68,2.2,2.33,2.57,4.72.13,7,.1s1.66-2.83,1.37-3.92c-.82-3,1.78-4.32,2.48-6.49,3.21-9.95,6.38-19.92,9.31-30,1.16-4,3.77-5,7.18-4.16,7.17,1.82,9.58,8.22,12.11,14.05.95,2.17-1.84,4.86-3.23,6.08C350.54,360.3,350.78,366.83,350,371.54Zm52.88,12.18c0,4-.07,9.8-3.21,14.86A28.52,28.52,0,0,1,384,411.17c-3.77,1.21-7.52-1.49-11.34-2.12-9.15-1.49-12.07-8.62-14.2-16.14-.61-2.12-4.05-3.9-1.51-6.57a5.57,5.57,0,0,1,7-.76c2.46,1.47,6.09,2.67,5.05,7-.16.65-.33,1.68,0,2a28.34,28.34,0,0,0,10.76,6.21c2.85,1,9.18-5.86,10.49-9.29,2.73-7.21.57-13.61-3.22-19.44-1.71-2.62-.65-4.77-.77-7.13-.06-1.38,1.31-2.16,2.15-1.4,3.1,2.82,9.08,1.33,10.27,6.84C399.63,374.47,403.45,377.49,402.89,383.72Zm28.86-92.54a2,2,0,0,0,.35-1.47c-.13-.48-.16-1.13-.59-1.32a.91.91,0,0,0-.58,0,.91.91,0,0,1,.58,0c.43.19.46.84.6,1.32A2,2,0,0,1,431.75,291.18Z" style="fill:#183948;"/><path d="M255.18,315.58c.57-.13.56-.46,0-.56-.3,0-.65.17-1,.27v.06h0A2.45,2.45,0,0,0,255.18,315.58Z" style="fill:#183948;"/><path d="M216.32,472.09a1.55,1.55,0,0,1-1.83-.86C215.22,471.25,216,471.26,216.32,472.09Z" style="fill:#51b2c5;"/><path d="M483.35,370.66c20.32-8.84,43.35-18.82,65.8-12.26,8.5,2.49,16.67,7.22,22.15,14.3,6,7.75,7.69,17.72,5.49,27.19C574,412.1,566,422,556.47,429.76a2.51,2.51,0,0,0,0,3.53,2.55,2.55,0,0,0,3.54,0c9.26-7.51,16.9-17,20.6-28.45,3.37-10.45,2.84-22.07-2.91-31.6-5.17-8.58-13.64-14.6-22.88-18.18-10.41-4-21.57-4.47-32.51-2.75-14.51,2.27-28.12,8.22-41.49,14a2.52,2.52,0,0,0-.89,3.42,2.56,2.56,0,0,0,3.42.9Z" style="fill:#143746;"/><path d="M483.35,402.32c20.32-8.85,43.35-18.82,65.8-12.26,8.5,2.48,16.67,7.21,22.15,14.29,6,7.76,7.69,17.72,5.49,27.19C574,443.75,566,453.65,556.47,461.42a2.51,2.51,0,0,0,0,3.53,2.56,2.56,0,0,0,3.54,0c9.26-7.51,16.9-17,20.6-28.46,3.37-10.45,2.84-22.06-2.91-31.59-5.17-8.59-13.64-14.61-22.88-18.19-10.41-4-21.57-4.46-32.51-2.75-14.51,2.27-28.12,8.22-41.49,14a2.52,2.52,0,0,0-.89,3.42,2.56,2.56,0,0,0,3.42.9Z" style="fill:#143746;"/></g></g></svg>