<?xml version="1.0"?><svg fill="#000000" xmlns="http://www.w3.org/2000/svg" viewBox="0 0 64 64" width="64px" height="64px">    <path d="M 12 5 C 10.895 5 10 5.895 10 7 L 10 58 C 10 59.105 10.895 60 12 60 L 29.5 60 C 44.664 60 57 47.664 57 32.5 C 57 17.336 44.664 5 29.5 5 L 12 5 z M 12 7 L 29.5 7 C 43.583 7 55 18.417 55 32.5 C 55 46.583 43.583 58 29.5 58 L 12 58 L 12 7 z M 21.5 11 C 20.672 11 20 11.672 20 12.5 L 20 52.5 C 20 53.328 20.672 54 21.5 54 L 25.5 54 C 37.374 54 47 44.374 47 32.5 C 47 20.626 37.374 11 25.5 11 L 21.5 11 z M 41.921875 12.429688 C 41.669125 12.470562 41.432484 12.606578 41.271484 12.830078 C 40.948484 13.277078 41.049094 13.902563 41.496094 14.226562 C 41.509094 14.235563 42.82175 15.192141 44.34375 17.119141 C 44.54075 17.369141 44.832906 17.5 45.128906 17.5 C 45.345906 17.5 45.563094 17.430203 45.746094 17.283203 C 46.180094 16.942203 46.253156 16.312906 45.910156 15.878906 C 44.218156 13.737906 42.730969 12.650469 42.667969 12.605469 C 42.443969 12.443469 42.174625 12.388813 41.921875 12.429688 z M 22 13 L 25.5 13 C 36.252 13 45 21.748 45 32.5 C 45 43.252 36.252 52 25.5 52 L 22 52 L 22 13 z M 47.097656 18.564453 C 46.968672 18.582313 46.842156 18.626516 46.722656 18.697266 C 46.248656 18.979266 46.093953 19.593359 46.376953 20.068359 C 47.575953 22.078359 48.534438 24.621875 49.148438 27.421875 C 49.251438 27.889875 49.663047 28.207031 50.123047 28.207031 C 50.194047 28.207031 50.268844 28.200547 50.339844 28.185547 C 50.879844 28.067547 51.219563 27.533141 51.101562 26.994141 C 50.441562 23.985141 49.40275 21.236969 48.09375 19.042969 C 47.883 18.687469 47.484609 18.510875 47.097656 18.564453 z M 38 21.910156 C 37.747125 21.870406 37.478859 21.927344 37.255859 22.089844 L 35.638672 23.267578 C 35.191672 23.592578 35.094922 24.218062 35.419922 24.664062 C 35.744922 25.110063 36.370406 25.209766 36.816406 24.884766 L 38.433594 23.707031 C 38.880594 23.382031 38.977344 22.756547 38.652344 22.310547 C 38.489844 22.087047 38.252875 21.949906 38 21.910156 z M 40.416016 26.505859 C 40.286516 26.495844 40.152484 26.510938 40.021484 26.554688 L 38.125 27.189453 C 37.601 27.365453 37.319141 27.931078 37.494141 28.455078 C 37.669141 28.979078 38.236766 29.260937 38.759766 29.085938 L 40.65625 28.451172 C 41.18025 28.275172 41.462109 27.709547 41.287109 27.185547 C 41.155109 26.792547 40.804516 26.535906 40.416016 26.505859 z M 40.947266 31.785156 L 38.949219 31.835938 C 38.396219 31.849938 37.960609 32.307375 37.974609 32.859375 C 37.988609 33.411375 38.446047 33.848938 38.998047 33.835938 L 40.998047 33.785156 C 41.551047 33.771156 41.986656 33.311766 41.972656 32.759766 C 41.958656 32.206766 41.499266 31.771156 40.947266 31.785156 z M 38.365234 36.441406 C 37.976922 36.471688 37.625391 36.728844 37.494141 37.121094 C 37.319141 37.645094 37.601 38.212672 38.125 38.388672 L 40.021484 39.023438 C 40.545484 39.198437 41.111109 38.916578 41.287109 38.392578 C 41.462109 37.868578 41.18025 37.302953 40.65625 37.126953 L 38.759766 36.490234 C 38.629016 36.446484 38.494672 36.431312 38.365234 36.441406 z M 36.072266 40.513672 C 35.819391 40.553547 35.582422 40.689109 35.419922 40.912109 C 35.094922 41.358109 35.191672 41.985547 35.638672 42.310547 L 37.255859 43.486328 C 37.701859 43.811328 38.327344 43.714578 38.652344 43.267578 C 38.977344 42.821578 38.880594 42.194141 38.433594 41.869141 L 36.816406 40.693359 C 36.593406 40.530859 36.325141 40.473797 36.072266 40.513672 z"/></svg>