<?xml version="1.0" encoding="utf-8"?>
<!-- Generator: Adobe Illustrator 23.0.6, SVG Export Plug-In . SVG Version: 6.00 Build 0)  -->
<svg version="1.1" id="Layer_1" xmlns="http://www.w3.org/2000/svg" xmlns:xlink="http://www.w3.org/1999/xlink" x="0px" y="0px"
     width="719.59161px" height="684.98328px" viewBox="0 0 719.59161 684.98328" enable-background="new 0 0 719.59161 684.98328"
     xml:space="preserve">
<g>
	<g>
		<path fill="#FED8C1" d="M669.24158,680.83472L669.24158,680.83472c-0.67548,1.92236,0.31708,2.25598,1.82825,1.75397
			c0.85382-0.28577,1.62183-0.89679,2.15527-1.69781c2.5813-2.66064,3.51117-5.87286,3.1676-9.50952
			c-0.21301-1.44177-1.052-2.58795-2.42609-2.70032c-1.15607-0.09412-1.91083,0.87207-1.74402,2.21143
			c-0.04626,1.25519-0.47894,2.39966-0.87036,3.58386C670.65033,676.59521,669.23004,678.48291,669.24158,680.83472z"/>
        <g>
			<path fill="#353895" d="M67.45337,156.64719c-0.04129-0.00826-0.08919-0.01486-0.13213-0.02312
				c-0.44262-1.4352-1.47648-2.67384-3.07516-3.3163c-1.64163-0.65897-3.41868-0.01486-4.66229,1.09167
				c-1.11644,0.99257-1.92404,2.91826-0.89513,4.16022c0.33031,0.39966,0.99918,0.33691,1.3394,0
				c0.96945-0.95955,0.67383-2.32372,2.18498-2.91331c1.15443-0.44922,2.03304,0.05615,2.58466,0.88026
				c-2.60117,0.23122-5.3741,1.455-4.81588,4.26923c0.65896,3.31297,5.02232,3.02892,6.57476,0.70685
				c0.52684-0.78777,0.82907-1.64328,0.94963-2.50208c0.20809-0.28239,0.39803-0.57307,0.54832-0.87695
				C68.32868,157.57536,68.1272,156.79251,67.45337,156.64719z"/>
            <path fill="#353895" d="M400.42609,4.95199c-0.04129-0.00991-0.0892-0.01486-0.13214-0.02312
				c-0.4426-1.43518-1.47647-2.67384-3.07513-3.31628c-1.64163-0.65896-3.4187-0.01486-4.66229,1.09167
				c-1.11642,0.99257-1.92404,2.91826-0.89514,4.16022c0.33029,0.39967,0.99753,0.33691,1.33939,0
				c0.96948-0.95954,0.67386-2.32371,2.185-2.91331c1.15442-0.45087,2.03305,0.05615,2.58466,0.88027
				c-2.60117,0.23122-5.37408,1.455-4.81589,4.26922c0.65897,3.31298,5.02234,3.02892,6.57477,0.70851
				c0.52686-0.78778,0.82907-1.64328,0.94965-2.50208c0.2081-0.28241,0.39801-0.57308,0.54831-0.87697
				C401.30139,5.8818,401.09991,5.09732,400.42609,4.95199z"/>
            <path fill="#FDF8E5" d="M316.05078,179.60849c-0.04129-0.00826-0.0892-0.01488-0.13214-0.02312
				c-0.44263-1.4352-1.47647-2.67384-3.07516-3.3163c-1.64163-0.65897-3.41867-0.01486-4.66226,1.09167
				c-1.11642,0.99257-1.92404,2.91826-0.89514,4.16022c0.33029,0.39966,0.99753,0.33691,1.33939,0
				c0.96945-0.95955,0.67383-2.32372,2.185-2.91331c1.15442-0.45087,2.03302,0.05615,2.58466,0.88026
				c-2.60117,0.23122-5.37411,1.455-4.81589,4.26923c0.65897,3.31297,5.02231,3.02892,6.57477,0.7085
				c0.52682-0.78777,0.82907-1.64328,0.94962-2.50208c0.2081-0.28241,0.39801-0.57307,0.54831-0.87695
				C316.92444,180.53831,316.72293,179.75381,316.05078,179.60849z"/>
            <path fill="#FDF8E5" d="M218.2749,469.76843c-0.04128-0.00827-0.08919-0.01486-0.13213-0.02313
				c-0.44263-1.43518-1.47647-2.67383-3.07516-3.31628c-1.64163-0.65894-3.41869-0.01486-4.66228,1.09167
				c-1.11644,0.99261-1.92404,2.91827-0.89514,4.16025c0.33031,0.39969,0.99753,0.33694,1.3394,0
				c0.96945-0.95953,0.67383-2.32373,2.18498-2.91333c1.15442-0.45087,2.03304,0.05615,2.58466,0.88025
				c-2.60117,0.23126-5.3741,1.45337-4.81589,4.26923c0.65897,3.31299,5.02232,3.02893,6.57477,0.70688
				c0.52684-0.78778,0.82907-1.64328,0.94963-2.50046c0.2081-0.28238,0.39801-0.57306,0.54831-0.87695
				C219.15024,470.69662,218.94873,469.91379,218.2749,469.76843z"/>
            <path fill="#FDF8E5" d="M105.96719,58.33788c-0.04129-0.00826-0.08919-0.01486-0.13213-0.02312
				c-0.44261-1.43518-1.47648-2.67384-3.07516-3.31628c-1.64162-0.65896-3.41868-0.01486-4.66228,1.09166
				c-1.11643,0.99258-1.92404,2.91826-0.89513,4.16022c0.33031,0.39967,0.99753,0.33691,1.3394,0
				c0.96945-0.95955,0.67383-2.32371,2.18498-2.91331c1.15443-0.45087,2.03304,0.05615,2.58465,0.88027
				c-2.60117,0.23122-5.3741,1.45501-4.81587,4.26922c0.65896,3.31298,5.02232,3.02892,6.57476,0.70686
				c0.52684-0.78778,0.82907-1.64328,0.94962-2.50042c0.2081-0.28242,0.39802-0.57308,0.54832-0.87696
				C106.8425,59.26769,106.64101,58.48321,105.96719,58.33788z"/>
            <path fill="#FDF8E5" d="M391.90085,659.91138c-0.04129-0.00824-0.08917-0.01483-0.13211-0.02313
				c-0.44263-1.43512-1.47647-2.67377-3.07516-3.31622c-1.64163-0.659-3.4187-0.01489-4.66229,1.09167
				c-1.11642,0.99255-1.92401,2.91821-0.89514,4.16022c0.33029,0.39966,0.99753,0.33691,1.33942,0
				c0.96945-0.95953,0.67383-2.32373,2.18497-2.91333c1.15442-0.45087,2.03305,0.05615,2.58466,0.88025
				c-2.60117,0.23126-5.37408,1.45337-4.81589,4.26923c0.65897,3.31299,5.02234,3.02893,6.57477,0.70685
				c0.52686-0.78778,0.82907-1.64325,0.94965-2.50043c0.2081-0.28241,0.39801-0.57306,0.54831-0.87695
				C392.77615,660.84119,392.57468,660.0567,391.90085,659.91138z"/>
            <path fill="#353895" d="M439.52783,309.85355c-0.04129-0.00827-0.08917-0.01486-0.13211-0.02313
				c-0.4426-1.43518-1.47647-2.67383-3.07513-3.31628c-1.64163-0.65897-3.4187-0.01486-4.66229,1.09167
				c-1.11642,0.99255-1.92404,2.91824-0.89511,4.16022c0.33032,0.39966,0.99753,0.33691,1.33939,0
				c0.96945-0.95953,0.67383-2.3237,2.185-2.91333c1.15442-0.45087,2.03302,0.05615,2.58466,0.88028
				c-2.6012,0.2312-5.37576,1.45499-4.81586,4.26923c0.65894,3.31299,5.02228,3.02893,6.57474,0.70685
				c0.52682-0.78778,0.8291-1.64328,0.94965-2.50208c0.20645-0.28241,0.39801-0.57309,0.54831-0.87698
				C440.40314,310.78336,440.20163,309.99887,439.52783,309.85355z"/>
            <path fill="#353895" d="M154.20358,421.69223c-0.04129-0.00827-0.08917-0.01486-0.13213-0.02313
				c-0.4426-1.43521-1.47646-2.67386-3.07515-3.31628c-1.64163-0.65897-3.41869-0.01486-4.66229,1.09164
				c-1.11644,0.99258-1.92403,2.91827-0.89513,4.16025c0.33031,0.39969,0.99919,0.33694,1.33939,0
				c0.96945-0.95953,0.67383-2.3237,2.18498-2.91333c1.15442-0.45084,2.03305,0.05615,2.5863,0.88028
				c-2.60115,0.23123-5.37573,1.45334-4.81587,4.26926c0.65897,3.31131,5.02232,3.02893,6.57477,0.70685
				c0.52684-0.78775,0.82907-1.64325,0.94963-2.50211c0.20644-0.28238,0.39801-0.57303,0.54831-0.87695
				C155.0789,422.62204,154.87741,421.83759,154.20358,421.69223z"/>
            <path fill="#353895" d="M710.34668,401.45596c-0.04126-0.00824-0.08917-0.01486-0.13214-0.02313
				c-0.44257-1.43518-1.47644-2.67383-3.07513-3.31625c-1.6416-0.65897-3.4187-0.01489-4.66229,1.09164
				c-1.11639,0.99258-1.92401,2.91827-0.89508,4.16022c0.33032,0.39969,0.9975,0.33691,1.33936,0
				c0.96948-0.95953,0.67383-2.3237,2.185-2.91333c1.15442-0.45087,2.03302,0.05615,2.58466,0.88028
				c-2.6012,0.2312-5.37408,1.45337-4.81586,4.26923c0.65894,3.31134,5.02228,3.02893,6.57477,0.70685
				c0.52686-0.78778,0.8291-1.64325,0.94965-2.50208c0.20807-0.28241,0.39801-0.57309,0.54828-0.87698
				C711.22034,402.38412,711.0188,401.60132,710.34668,401.45596z"/>
            <path fill="#353895" d="M335.12103,479.99146c-0.04126-0.00827-0.08917-0.01489-0.13211-0.02316
				c-0.44263-1.43515-1.47647-2.6738-3.07516-3.31625c-1.64163-0.65894-3.41867-0.01486-4.66226,1.09167
				c-1.11646,0.99258-1.92404,2.91827-0.89517,4.16025c0.33032,0.39966,0.99756,0.33691,1.33942,0
				c0.96945-0.95953,0.67383-2.32373,2.18497-2.91333c1.15445-0.4509,2.03305,0.05615,2.58466,0.88025
				c-2.60117,0.23123-5.37408,1.45337-4.81586,4.2692c0.65897,3.31302,5.02231,3.02896,6.57477,0.70688
				c0.52682-0.78775,0.82907-1.64328,0.94962-2.50211c0.2081-0.28238,0.39801-0.57306,0.54831-0.87695
				C335.9964,480.9213,335.79489,480.13681,335.12103,479.99146z"/>
            <path fill="#353895" d="M521.4126,678.3656c-0.04126-0.00824-0.08917-0.01483-0.13208-0.02313
				c-0.44263-1.43512-1.4765-2.67377-3.07513-3.31622c-1.64166-0.659-3.4187-0.01489-4.66229,1.09167
				c-1.11646,0.99255-1.92407,2.91827-0.89514,4.16022c0.33032,0.39966,0.99921,0.33691,1.33942,0
				c0.96942-0.95953,0.67383-2.32373,2.185-2.91333c1.15442-0.45087,2.96777-11.65985,3.521-10.83569
				c-2.60114,0.2312-6.31049,13.17096-5.75061,15.98517c0.65894,3.31134,5.02228,3.02893,6.57477,0.70685
				c0.52679-0.78772,0.82904-1.64325,0.94965-2.50208c0.20807-0.28241,0.39801-0.57306,0.54828-0.87695
				C522.2879,679.29547,522.08649,678.51099,521.4126,678.3656z"/>
            <path fill="#353895" d="M9.23839,654.79993c-0.04129-0.0083-0.08918-0.01489-0.13212-0.02319
				c-0.44261-1.43512-1.47647-2.67377-3.07516-3.31622c-1.64163-0.65894-3.41868-0.01489-4.66229,1.09167
				c-1.11644,0.99255-1.92404,2.91827-0.89513,4.16022c0.33031,0.39966,0.99753,0.33691,1.3394,0
				c0.96945-0.95953,0.67383-2.32373,2.18498-2.91333c1.15442-0.44922,2.03304,0.05615,2.58465,0.88025
				c-2.60117,0.23126-5.3741,1.45337-4.81588,4.26923c0.65896,3.31299,5.02232,3.02893,6.57476,0.7085
				c0.52684-0.78778,0.82907-1.64331,0.94963-2.50214c0.20809-0.28235,0.39802-0.57306,0.54831-0.87695
				C10.1137,655.72968,9.91222,654.94519,9.23839,654.79993z"/>
            <path fill="#F16925" d="M177.90642,387.32376c-0.04129-0.00824-0.08917-0.01486-0.13213-0.02313
				c-0.4426-1.43518-1.47646-2.67383-3.07515-3.31625c-1.64163-0.65897-3.41869-0.01489-4.66229,1.09164
				c-1.11644,0.99258-1.92403,2.91827-0.89513,4.16022c0.33031,0.39969,0.99753,0.33691,1.33939,0
				c0.96945-0.95953,0.67383-2.3237,2.18498-2.91333c1.15442-0.44922,2.03305,0.05615,2.58466,0.88028
				c-2.60117,0.23123-5.37408,1.45499-4.81587,4.26923c0.65897,3.31299,5.02232,3.02893,6.57477,0.70853
				c0.52684-0.78781,0.82907-1.64328,0.94963-2.50208c0.20808-0.28244,0.39801-0.57309,0.54831-0.87698
				C178.78174,388.25195,178.58025,387.46747,177.90642,387.32376z M644.62543,216.02649
				c-0.04126-0.0099-0.08911-0.01486-0.13208-0.02313c-0.44263-1.4352-1.4765-2.67384-3.07513-3.31627
				c-1.6416-0.65897-3.4187-0.01488-4.66229,1.09164c-1.11646,0.99257-1.92407,2.91827-0.89514,4.16022
				c0.33032,0.39969,0.99756,0.33691,1.33942,0c0.96948-0.95953,0.67383-2.3237,2.185-2.91331
				c1.15442-0.45087,2.03302,0.05614,2.58466,0.88028c-2.6012,0.2312-5.37415,1.45499-4.81586,4.26923
				c0.65894,3.31297,5.02228,3.02892,6.57471,0.70851c0.52686-0.7878,0.8291-1.64328,0.94965-2.50208
				c0.20813-0.28242,0.39801-0.57309,0.54834-0.87698C645.50073,216.95631,645.29926,216.17184,644.62543,216.02649z
				 M33.80663,510.68854c-0.04129-0.00827-0.08918-0.01486-0.13212-0.02313c-0.44261-1.43515-1.47647-2.67383-3.07516-3.31628
				c-1.64163-0.65894-3.41868-0.01486-4.66228,1.09171c-1.11644,0.99258-1.92404,2.91824-0.89513,4.16025
				c0.33031,0.39966,0.99753,0.33691,1.33939,0c0.96945-0.95956,0.67383-2.32376,2.18498-2.91333
				c1.15442-0.44925,2.03304,0.05612,2.58465,0.88025c-2.60117,0.23123-5.3741,1.45337-4.81588,4.26923
				c0.65896,3.31299,5.02232,3.02893,6.57477,0.70844c0.52684-0.78772,0.82907-1.64325,0.94963-2.50208
				c0.2081-0.28241,0.39802-0.57306,0.54831-0.87695C34.6803,511.61835,34.47881,510.83389,33.80663,510.68854z M172.6628,391.29572
				c-0.45088-0.60776,0.0033-1.0636,0.78282-1.3873c-0.62428,0.38153-0.54666,1.39227,0.20975,1.61688
				c0.38481,0.11395,0.763,0.13211,1.1313,0.10733C174.14752,392.13635,173.34323,392.21234,172.6628,391.29572z"/>
            <path fill="#FDF8E5" d="M24.42426,358.03214c2.44097,2.14371,3.67136,2.37326,5.12306,0.95792
				c-0.28572-0.48557-0.57143-0.9711-0.85715-1.45667c-0.31214-1.41702-1.09001-2.51859-2.27251-3.34436
				c-0.15194-0.15524-0.30553-0.31049-0.45748-0.46573l0,0c-1.05533-1.65649-2.17177-3.26178-3.97525-4.2048
				c-0.89679-0.46741-1.69943-0.55493-2.52024,0.32205c-0.80099,0.85715-0.45913,1.60696,0.00165,2.32208
				C20.86355,354.32776,22.28222,356.48959,24.42426,358.03214z"/>
            <path fill="#FDF8E5" d="M476.1622,543.70441c2.44098,2.14368,3.67136,2.37323,5.12305,0.95782
				c-0.28571-0.48553-0.57144-0.97107-0.85715-1.4566c-0.31213-1.41705-1.09003-2.51862-2.27255-3.34601
				c-0.15195-0.15527-0.30551-0.31049-0.45749-0.46576l0,0c-1.05533-1.65649-2.17175-3.26178-3.97525-4.20477
				c-0.89679-0.46741-1.69943-0.55493-2.52023,0.32202c-0.80099,0.85718-0.45917,1.60693,0.00165,2.32208
				C472.6015,540.00165,474.02017,542.16187,476.1622,543.70441z"/>
            <path fill="#F16925" d="M430.44772,564.98608c2.44095,2.14368,3.67133,2.37323,5.12305,0.95782
				c-0.28574-0.48553-0.57144-0.97113-0.85718-1.4566c-0.31213-1.41705-1.09003-2.51862-2.27252-3.34601
				c-0.15195-0.15527-0.30554-0.31049-0.45749-0.46576l0,0c-1.05536-1.65649-2.17178-3.26184-3.97528-4.20483
				c-0.89676-0.46735-1.6994-0.55487-2.52023,0.32208c-0.80096,0.85718-0.45917,1.60693,0.00165,2.32208
				C426.88864,561.28168,428.30728,563.44354,430.44772,564.98608z"/>
            <path fill="#FDF8E5" d="M676.61902,116.40588c2.44098,2.14368,3.67133,2.37325,5.12305,0.95789
				c-0.28571-0.48555-0.57147-0.9711-0.85718-1.45667c-0.31213-1.41702-1.09003-2.51859-2.27252-3.34601
				c-0.15198-0.15525-0.30554-0.3105-0.45746-0.46573l0,0c-1.05536-1.65649-2.17181-3.26179-3.97528-4.20481
				c-0.89679-0.46738-1.6994-0.55491-2.52026,0.32205c-0.80096,0.85714-0.45917,1.60694,0.00165,2.32205
				C673.05829,112.70147,674.47699,114.86334,676.61902,116.40588z"/>
            <path fill="#FDF8E5" d="M611.57819,347.26578c2.44098,2.14371,3.67139,2.37326,5.12305,0.95792
				c-0.28571-0.48557-0.57141-0.9711-0.85718-1.45667c-0.31213-1.41702-1.08997-2.51859-2.27252-3.34601
				c-0.15192-0.15524-0.30548-0.31052-0.45746-0.46573l0,0c-1.05536-1.65649-2.17175-3.26181-3.97528-4.20483
				c-0.89679-0.46738-1.6994-0.5549-2.52026,0.32208c-0.80096,0.85712-0.45911,1.60693,0.00171,2.32205
				C608.01752,343.56137,609.43616,345.72324,611.57819,347.26578z"/>
            <path fill="#FDF8E5" d="M144.82121,588.23474c2.44096,2.14374,3.67137,2.37329,5.12306,0.95789
				c-0.28571-0.48553-0.57143-0.97113-0.85715-1.4566c-0.31213-1.41705-1.09001-2.51862-2.27251-3.34601
				c-0.15195-0.15527-0.30553-0.31049-0.45747-0.46576l0,0c-1.05533-1.65649-2.17178-3.26184-3.97525-4.20483
				c-0.89677-0.46735-1.69943-0.55487-2.52025,0.32208c-0.80099,0.85718-0.45912,1.60693,0.00166,2.32208
				C141.2605,584.53033,142.67917,586.6922,144.82121,588.23474z"/>
            <path fill="#FDF8E5" d="M440.40646,195.08833c2.44098,2.14369,3.67136,2.37325,5.12305,0.95789
				c-0.28571-0.48553-0.57144-0.97108-0.85715-1.45665c-0.31213-1.41702-1.09003-2.5186-2.27255-3.34436
				c-0.15195-0.15526-0.30551-0.3105-0.45749-0.46573l0,0c-1.05533-1.65649-2.17175-3.26178-3.97525-4.20482
				c-0.89679-0.46738-1.69943-0.5549-2.52023,0.32205c-0.80099,0.85715-0.45917,1.60695,0.00165,2.32207
				C436.84576,191.38394,438.26443,193.54581,440.40646,195.08833z"/>
            <path fill="#FDF8E5" d="M242.85802,17.49044c2.44096,2.14369,3.67139,2.37326,5.12308,0.95789
				c-0.28572-0.48555-0.57143-0.9711-0.85715-1.45665c-0.31213-1.41702-1.09001-2.51859-2.27252-3.34436
				c-0.15193-0.15524-0.30553-0.31049-0.45746-0.46573l0,0c-1.05534-1.65649-2.17177-3.26178-3.97525-4.20481
				c-0.89677-0.46738-1.69943-0.55492-2.52023,0.32205c-0.80099,0.85715-0.45914,1.60694,0.00166,2.32206
				C239.29897,13.78605,240.71762,15.94791,242.85802,17.49044z"/>
            <path fill="#FED8C1" d="M406.64246,101.8162L406.64246,101.8162c-0.67548,1.92239,0.31708,2.256,1.8266,1.75393
				c0.85385-0.28571,1.6218-0.89678,2.15524-1.69778c2.58136-2.66062,3.51117-5.87286,3.16763-9.50954
				c-0.21469-1.4418-1.052-2.58796-2.42609-2.70026c-1.15607-0.09413-1.91083,0.87366-1.74402,2.21141
				c-0.04623,1.25517-0.47894,2.39968-0.87036,3.58383C408.05124,97.57671,406.62924,99.46442,406.64246,101.8162z"/>
            <path fill="#FED8C1" d="M672.95923,498.76938C672.95923,498.77106,672.95923,498.77106,672.95923,498.76938
				c-0.67548,1.92239,0.31708,2.25601,1.82654,1.75397c0.85388-0.28574,1.62183-0.89679,2.15527-1.69781
				c2.5813-2.66061,3.51117-5.87286,3.1676-9.50952c-0.21301-1.44177-1.052-2.58795-2.42609-2.70029
				c-1.15607-0.09415-1.91083,0.87366-1.74402,2.2114c-0.04626,1.25519-0.47894,2.39969-0.87036,3.58386
				C674.36798,494.52994,672.94763,496.41763,672.95923,498.76938z"/>
            <path fill="#FED8C1" d="M64.67219,269.81042L64.67219,269.81042c-0.67548,1.92239,0.31709,2.25598,1.82659,1.75391
				c0.85384-0.28571,1.62181-0.89676,2.15526-1.69775c2.58134-2.66061,3.51116-5.87286,3.16764-9.50955
				c-0.2147-1.4418-1.05202-2.58795-2.42611-2.70026c-1.15607-0.09415-1.91083,0.87369-1.74402,2.21143
				c-0.04624,1.25516-0.47895,2.39969-0.87036,3.58383C66.08095,265.57092,64.66062,267.45697,64.67219,269.81042z"/>
            <path fill="#FED8C1" d="M565.05444,32.78366L565.05444,32.78366c-0.67542,1.92239,0.31708,2.256,1.8266,1.75393
				c0.85382-0.28572,1.62183-0.89678,2.15527-1.69778c2.5813-2.66062,3.51117-5.87286,3.1676-9.50954
				c-0.21301-1.44179-1.052-2.58796-2.42609-2.70026c-1.15607-0.09414-1.91083,0.87366-1.74402,2.2114
				c-0.04626,1.25517-0.47894,2.39968-0.87036,3.58383C566.46326,28.54417,565.04291,30.43188,565.05444,32.78366z"/>
            <path fill="#FED8C1" d="M285.09274,348.85953C285.09274,348.85953,285.09106,348.85953,285.09274,348.85953
				c-0.67548,1.92239,0.31711,2.25598,1.82825,1.75391c0.85382-0.28571,1.6218-0.89676,2.15524-1.69775
				c2.58136-2.66061,3.51117-5.87286,3.16763-9.50955c-0.21304-1.4418-1.052-2.58795-2.42609-2.70026
				c-1.15607-0.09415-1.91083,0.87369-1.74402,2.21143c-0.04626,1.25516-0.47729,2.39969-0.87036,3.58383
				C286.5015,344.61835,285.07953,346.50607,285.09274,348.85953z"/>
            <path fill="#FED8C1" d="M77.19578,656.29456L77.19578,656.29456c-0.67548,1.92236,0.3171,2.25598,1.8266,1.75391
				c0.85384-0.28571,1.6218-0.89673,2.15525-1.69775c2.58135-2.66064,3.51117-5.87286,3.16765-9.50958
				c-0.21305-1.44177-1.05203-2.58789-2.42611-2.70026c-1.15607-0.09418-1.91083,0.87366-1.74402,2.21136
				c-0.04625,1.25519-0.4773,2.39972-0.87036,3.58386C78.60454,652.05341,77.18422,653.9411,77.19578,656.29456z"/>
            <polygon fill="#F16925" points="4.97908,6.04365 14.38127,23.71839 26.01799,4.25173 			"/>
            <polygon fill="#C7E1DC" points="498.65283,291.02603 508.05502,308.70078 519.69171,289.23248 			"/>
            <polygon fill="#C7E1DC" points="341.7916,242.61623 351.19543,260.29095 362.83218,240.82266 			"/>
            <polygon fill="#C7E1DC" points="189.99071,61.63764 199.39456,79.31238 211.03128,59.84408 			"/>
            <polygon fill="#C7E1DC" points="255.1917,545.55579 237.41786,554.76971 256.7623,566.61285 			"/>
            <polygon fill="#C7E1DC" points="586.32788,590.08612 568.55573,599.30005 587.8985,611.14325 			"/>
            <polygon fill="#F16925" points="704.51672,6.62829 686.74292,15.84221 706.08569,27.68538 			"/>
            <polygon fill="#F16925" points="619.52045,501.66617 601.74829,510.88177 621.09106,522.72491 			"/>
            <path fill="#E4E3D2" d="M508.91214,400.56909c1.13461-0.81586,2.17505-1.76218,3.09329-2.81421
				c0.35016-0.40131,0.1239-1.03717-0.4046-1.09991c-1.60861-0.19159-3.57062,1.28159-5.31302,0.87033
				c-1.94553-0.45746-2.54498-2.85052-3.58054-4.56152c-0.24936-0.41122-0.65231-0.84393-1.12302-0.74649
				c-0.57144,0.11893-0.69528,0.87036-0.69202,1.45337l0.02975,5.61026c0.00659,1.26181-0.86707,2.35675-2.09909,2.62924
				c-0.81259,0.18002-1.62515,0.36005-2.43771,0.54004c-0.21136,0.04626-0.55164,0.18002-0.9017,0.3584
				c-0.64081,0.327-0.36829,1.2981,0.34845,1.2403c1.55905-0.12384,3.36917-0.34515,4.62762-0.35178
				c0.3204-0.00165,0.67053,0.00827,0.9133,0.21802c0.28738,0.24939,0.31213,0.67877,0.31381,1.06027
				c0.00494,1.04709-0.15524,2.51697-0.24606,3.81177c-0.04626,0.66058,0.84558,0.93475,1.16931,0.35672
				c0.26257-0.46902,0.45581-0.98099,0.51691-1.31464c0.13708-0.76465,0.10403-1.60361,0.54996-2.23782
				c0.83237-1.1825,2.65234-0.86871,3.98682-0.31213c1.21719,0.5087,2.65567,1.09827,3.80017,0.57144
				c0.17343-0.07928,0.23947-0.3006,0.12552-0.45416c-0.79276-1.06195-1.71762-2.02646-2.74323-2.86542
				C508.22345,402.02246,508.25815,401.03812,508.91214,400.56909z"/>
            <path fill="#E4E3D2" d="M205.77444,196.67711c1.1346-0.81587,2.17506-1.76219,3.09332-2.81587
				c0.35013-0.40132,0.12386-1.03717-0.40298-1.09993c-1.61024-0.19157-3.57062,1.2816-5.31299,0.87036
				c-1.94551-0.45912-2.54501-2.85054-3.58054-4.56154c-0.24937-0.41124-0.65234-0.84393-1.12305-0.74651
				c-0.57143,0.11891-0.69528,0.87036-0.69199,1.45335l0.02972,5.61028c0.00661,1.26176-0.86707,2.35674-2.09911,2.62924
				c-0.81255,0.18002-1.62512,0.36005-2.43767,0.54005c-0.2114,0.04625-0.55161,0.18002-0.90173,0.36005
				c-0.64079,0.32535-0.36829,1.29811,0.34848,1.2403c1.55904-0.12386,3.36913-0.34517,4.62595-0.35176
				c0.3204-0.00166,0.67052,0.00824,0.9133,0.218c0.28738,0.24939,0.31215,0.67879,0.3138,1.06029
				c0.00496,1.04707-0.15359,2.51694-0.24608,3.81174c-0.04625,0.66061,0.84558,0.93477,1.17094,0.35674
				c0.26259-0.46902,0.45583-0.98102,0.51694-1.31462c0.13707-0.76465,0.10405-1.60364,0.55161-2.23784
				c0.83237-1.1825,2.65237-0.8687,3.98682-0.31213c1.21718,0.50867,2.65567,1.09827,3.80019,0.57143
				c0.17506-0.08093,0.23946-0.30058,0.1255-0.45418c-0.79274-1.06194-1.71759-2.02643-2.74321-2.86542
				C205.08575,198.13046,205.12042,197.14615,205.77444,196.67711z"/>
            <path fill="#E4E3D2" d="M20.76115,467.49591c1.13461-0.81586,2.17507-1.76218,3.09333-2.81424
				c0.35012-0.40134,0.12387-1.03714-0.40463-1.09988c-1.60859-0.19159-3.57062,1.28159-5.31299,0.87036
				c-1.94551-0.45749-2.54502-2.85059-3.58053-4.56152c-0.24938-0.41122-0.65236-0.84393-1.12304-0.74649
				c-0.57143,0.1189-0.6953,0.87036-0.69199,1.45334l0.02973,5.61029c0.00661,1.26178-0.86706,2.35675-2.0991,2.62927
				c-0.81256,0.18002-1.62511,0.35999-2.43767,0.54004c-0.2114,0.04626-0.55161,0.18002-0.90174,0.3584
				c-0.6408,0.327-0.36829,1.29813,0.34847,1.2403c1.55905-0.12387,3.36913-0.34518,4.62595-0.35178
				c0.3204-0.00168,0.67052,0.00827,0.9133,0.21799c0.28737,0.24936,0.31214,0.6788,0.31379,1.06027
				c0.00496,1.04709-0.15524,2.51691-0.24608,3.81177c-0.04624,0.66061,0.84559,0.93478,1.16929,0.35675
				c0.2626-0.46906,0.45582-0.98102,0.51693-1.31461c0.13708-0.76471,0.10405-1.60367,0.54996-2.23785
				c0.83237-1.18253,2.65237-0.86871,3.98681-0.31213c1.21718,0.5087,2.65567,1.09827,3.80018,0.57144
				c0.17506-0.07928,0.23947-0.3006,0.12552-0.45416c-0.79274-1.06195-1.7176-2.02643-2.7432-2.86539
				C20.07246,468.94928,20.1088,467.965,20.76115,467.49591z"/>
            <path fill="#E4E3D2" d="M271.19839,661.15668c1.13458-0.81586,2.17505-1.76221,3.09332-2.81586
				c0.35013-0.40137,0.12384-1.03717-0.40298-1.09991c-1.61026-0.19159-3.57062,1.28162-5.31299,0.87036
				c-1.9455-0.45746-2.54501-2.85052-3.58054-4.56152c-0.24936-0.41119-0.65234-0.84387-1.12302-0.74646
				c-0.57141,0.1189-0.69531,0.87036-0.69202,1.45337l0.02975,5.61023c0.00659,1.26178-0.86707,2.35675-2.09912,2.62927
				c-0.81256,0.18005-1.62509,0.36005-2.43765,0.54004c-0.2114,0.04626-0.55161,0.18005-0.90173,0.3584
				c-0.64081,0.32538-0.36832,1.29816,0.34845,1.24036c1.55905-0.1239,3.36914-0.34521,4.62762-0.35181
				c0.3204-0.00171,0.67053,0.00824,0.91327,0.21796c0.28738,0.24939,0.31213,0.67883,0.31381,1.0603
				c0.00497,1.04706-0.15524,2.51691-0.24609,3.81177c-0.04623,0.66058,0.84558,0.93311,1.16928,0.35675
				c0.2626-0.46906,0.45584-0.98102,0.51694-1.31464c0.13705-0.76465,0.10406-1.60364,0.54996-2.23785
				c0.83237-1.1825,2.65237-0.86871,3.98682-0.31213c1.21716,0.50873,2.65567,1.09833,3.80017,0.57147
				c0.1734-0.08093,0.23947-0.3006,0.12552-0.45416c-0.79272-1.06195-1.71759-2.02643-2.74319-2.86542
				C270.50967,662.61005,270.54434,661.62567,271.19839,661.15668z"/>
            <path fill="#E4E3D2" d="M716.32849,328.69922c1.13464-0.81586,2.17505-1.76218,3.09497-2.81421
				c0.35016-0.40131,0.1239-1.03717-0.4046-1.09991c-1.60858-0.19159-3.57062,1.28159-5.31305,0.87033
				c-1.9455-0.45746-2.54498-2.85052-3.58051-4.56152c-0.24939-0.41122-0.65234-0.84393-1.12305-0.74649
				c-0.57141,0.11893-0.69525,0.87036-0.69196,1.45337l0.02972,5.61026c0.00659,1.26178-0.86707,2.35675-2.09912,2.62924
				c-0.81256,0.18002-1.62512,0.36005-2.43768,0.54004c-0.21136,0.04626-0.55164,0.18167-0.90173,0.3584
				c-0.64081,0.327-0.36829,1.2981,0.34851,1.2403c1.55902-0.12384,3.36914-0.34683,4.62592-0.35178
				c0.32037-0.00165,0.67053,0.00827,0.91333,0.21802c0.28735,0.24939,0.31213,0.67877,0.31378,1.06027
				c0.00494,1.04709-0.15521,2.51697-0.24603,3.81177c-0.04626,0.66058,0.84558,0.93475,1.16925,0.35672
				c0.26263-0.46902,0.45587-0.98099,0.51691-1.31464c0.13715-0.76465,0.10406-1.60361,0.54999-2.23782
				c0.8324-1.1825,2.65234-0.86871,3.98682-0.31213c1.21716,0.50705,2.65735,1.09827,3.80017,0.57144
				c0.17346-0.08093,0.23944-0.3006,0.12549-0.45416c-0.79272-1.06195-1.71759-2.02646-2.74316-2.86542
				C715.63983,330.15259,715.67615,329.16992,716.32849,328.69922z"/>
            <path fill="#E4E3D2" d="M711.34912,619.50818c1.13464-0.8158,2.17505-1.76215,3.09497-2.81421
				c0.35016-0.40137,0.1239-1.03717-0.4046-1.09991c-1.60858-0.19159-3.57062,1.28162-5.31299,0.87036
				c-1.94556-0.45746-2.54498-2.85052-3.58057-4.56152c-0.24939-0.41119-0.65234-0.84387-1.12299-0.74811
				c-0.57147,0.1189-0.69531,0.87036-0.69202,1.45331l0.02972,5.61029c0.00659,1.26178-0.86707,2.35675-2.09912,2.62927
				c-0.81256,0.18005-1.62512,0.35999-2.43768,0.54004c-0.21136,0.04626-0.55164,0.18005-0.90173,0.3584
				c-0.64075,0.32703-0.36823,1.29816,0.34851,1.2403c1.55902-0.12384,3.36914-0.3468,4.62592-0.35175
				c0.32043-0.00171,0.67053,0.00824,0.91333,0.21796c0.28741,0.24939,0.31213,0.67877,0.31378,1.0603
				c0.00494,1.04706-0.15521,2.51691-0.24603,3.81177c-0.04626,0.66058,0.84558,0.93311,1.16931,0.35669
				c0.26257-0.46899,0.45581-0.98096,0.51691-1.31458c0.13708-0.76471,0.104-1.60364,0.54999-2.23785
				c0.83234-1.1825,2.65234-0.86871,3.98676-0.31213c1.21722,0.50702,2.65735,1.09827,3.80023,0.57147
				c0.1734-0.07928,0.23944-0.3006,0.12549-0.45416c-0.79279-1.06195-1.71765-2.02643-2.74323-2.86542
				C710.66046,620.96155,710.69678,619.97888,711.34912,619.50818z"/>
            <path fill="#F16925" d="M15.2219,133.86095c1.13461-0.81586,2.17507-1.76218,3.09333-2.81421
				c0.35013-0.40132,0.12387-1.03717-0.40463-1.09993c-1.60859-0.19157-3.57062,1.2816-5.31299,0.87036
				c-1.94551-0.45747-2.54502-2.85055-3.58053-4.56154c-0.24938-0.41124-0.65236-0.84394-1.12304-0.74651
				c-0.57143,0.11726-0.6953,0.86871-0.69199,1.45335l0.02973,5.61027c0.00661,1.26178-0.86706,2.35675-2.0991,2.62926
				c-0.81256,0.18002-1.62511,0.36003-2.43767,0.54005c-0.2114,0.04625-0.55161,0.18002-0.90174,0.3584
				c-0.6408,0.32535-0.36829,1.29811,0.34847,1.2403c1.55905-0.12386,3.36913-0.34517,4.6276-0.35178
				c0.3204-0.00165,0.67052,0.00826,0.9133,0.21802c0.28737,0.24937,0.31214,0.67879,0.31379,1.06027
				c0.00495,1.04709-0.15524,2.51695-0.24608,3.81175c-0.04624,0.66061,0.84559,0.93477,1.16929,0.35674
				c0.26259-0.46904,0.45582-0.98102,0.51693-1.31462c0.13708-0.76466,0.10405-1.60364,0.55161-2.23784
				c0.83237-1.18251,2.65237-0.86871,3.98681-0.31215c1.21718,0.50868,2.65567,1.09828,3.80018,0.57144
				c0.17506-0.08093,0.23948-0.30058,0.12552-0.45418c-0.79274-1.06194-1.7176-2.02643-2.7432-2.86542
				C14.53321,135.3143,14.56789,134.32999,15.2219,133.86095z"/>
            <path fill="#F16925" d="M183.88994,241.6666c1.1346-0.81586,2.17508-1.76219,3.09332-2.81421
				c0.35013-0.40131,0.12387-1.03717-0.40462-1.09991c-1.6086-0.19157-3.57063,1.28159-5.313,0.87035
				c-1.94551-0.45914-2.54501-2.85056-3.58052-4.56154c-0.24939-0.41122-0.65236-0.84393-1.12305-0.74649
				c-0.57309,0.11726-0.6953,0.86871-0.692,1.45337l0.02972,5.61028c0.00661,1.26178-0.86705,2.35674-2.09911,2.62923
				c-0.81255,0.18001-1.62511,0.36005-2.43765,0.54005c-0.2114,0.04623-0.55162,0.18001-0.90175,0.35837
				c-0.64079,0.32536-0.36829,1.2981,0.34848,1.24031c1.55905-0.12386,3.36913-0.34517,4.62761-0.35176
				c0.32039-0.00166,0.67052,0.00826,0.9133,0.218c0.28737,0.24939,0.31215,0.67877,0.3138,1.06029
				c0.00494,1.04707-0.15359,2.51694-0.24608,3.81174c-0.04625,0.6606,0.84558,0.93477,1.17093,0.35674
				c0.26259-0.46902,0.45583-0.981,0.51694-1.31462c0.13708-0.76466,0.10405-1.60364,0.55162-2.23782
				c0.83237-1.18251,2.65236-0.86871,3.9868-0.31213c1.21718,0.50867,2.65567,1.09825,3.80019,0.57141
				c0.17342-0.07927,0.23947-0.30058,0.12552-0.45416c-0.79276-1.06194-1.71761-2.02644-2.74321-2.86542
				C183.20125,243.11993,183.23593,242.13564,183.88994,241.6666z"/>
            <path fill="#F16925" d="M387.9256,409.19672c1.13461-0.81586,2.17508-1.76218,3.09497-2.81421
				c0.35013-0.40131,0.12387-1.03717-0.4046-1.09991c-1.60861-0.19159-3.57065,1.28159-5.31299,0.87033
				c-1.9455-0.45746-2.54501-2.85052-3.58054-4.56152c-0.24939-0.41122-0.65237-0.84393-1.12302-0.74649
				c-0.57144,0.11893-0.69531,0.87036-0.69202,1.45337l0.02972,5.61026c0.00662,1.26178-0.86703,2.35675-2.09909,2.62924
				c-0.81256,0.18002-1.62509,0.36005-2.43765,0.54004c-0.2114,0.04626-0.55161,0.18002-0.90176,0.3584
				c-0.64078,0.32535-0.36829,1.2981,0.34848,1.2403c1.55905-0.12384,3.36914-0.34515,4.62595-0.35178
				c0.3204-0.00165,0.67053,0.00827,0.9133,0.21634c0.28735,0.24939,0.31213,0.6788,0.31378,1.0603
				c0.00497,1.04706-0.15524,2.51694-0.24606,3.81174c-0.04626,0.66061,0.84555,0.93475,1.16925,0.35675
				c0.2626-0.46906,0.45584-0.98102,0.51694-1.31464c0.13708-0.76468,0.10406-1.60364,0.55164-2.23782
				c0.83237-1.18253,2.65234-0.86871,3.98679-0.31213c1.21719,0.50867,2.65567,1.09827,3.80017,0.57141
				c0.17343-0.0809,0.2395-0.3006,0.12555-0.45416c-0.79276-1.06195-1.71759-2.02643-2.74319-2.86542
				C387.23691,410.65009,387.27325,409.66574,387.9256,409.19672z"/>
            <path fill="#F16925" d="M533.48041,8.36736c1.13458-0.81586,2.17505-1.76219,3.09497-2.81587
				c0.3501-0.40132,0.12384-1.03716-0.40466-1.09992c-1.60858-0.19158-3.57056,1.28159-5.31299,0.87036
				c-1.9455-0.45913-2.54498-2.85055-3.58051-4.56154c-0.24939-0.41123-0.65234-0.84393-1.12305-0.74649
				c-0.57147,0.11726-0.69525,0.86871-0.69202,1.45335l0.02972,5.61027c0.00665,1.26177-0.867,2.35674-2.09906,2.62924
				c-0.81256,0.18002-1.62512,0.36003-2.43768,0.54005c-0.21143,0.04624-0.55164,0.18002-0.90173,0.36003
				c-0.64081,0.32535-0.36829,1.29811,0.34845,1.2403c1.55908-0.12387,3.36914-0.34517,4.62762-0.35178
				c0.32037-0.00165,0.67053,0.00826,0.91333,0.218c0.28735,0.24938,0.31213,0.67878,0.31378,1.06029
				c0.00494,1.04707-0.15521,2.51694-0.24603,3.81174c-0.04626,0.66061,0.84552,0.93477,1.16925,0.35673
				c0.26263-0.46904,0.45587-0.98101,0.51691-1.31462c0.13715-0.76466,0.10406-1.60364,0.55164-2.23783
				c0.8324-1.1825,2.6524-0.86871,3.98682-0.31214c1.21722,0.50867,2.6557,1.09827,3.80017,0.57143
				c0.17346-0.08092,0.2395-0.30058,0.12555-0.45417c-0.79279-1.06194-1.71765-2.02643-2.74323-2.86541
				C532.79169,9.82071,532.82806,8.8364,533.48041,8.36736z"/>
		</g>
	</g>
    <path fill="#FDF8E5" d="M572.27332,118.80886c0,0-21.09174,15.81841-2.02808,39.34454c0,0-26.77136-0.40628-19.06366-30.82757
		C551.17993,127.32583,555.23608,115.96987,572.27332,118.80886z"/>
</g>
</svg>
